<svg width="389" height="345" viewBox="0 0 389 345" fill="none" xmlns="http://www.w3.org/2000/svg">
<path d="M187.42 47.6485L195.073 40.2529L195.238 40.4323L195.437 40.6631L195.625 40.8902L195.799 41.1062L195.961 41.3161L196.113 41.5198L196.249 41.7106L196.376 41.8953L196.486 42.0636L196.583 42.214L196.663 42.3449L196.71 42.4231L196.739 42.4697L196.736 42.4659L196.688 42.3926L196.615 42.2884L196.49 42.1247L196.327 41.9339L196.146 41.7454L195.949 41.5641L195.777 41.4241L195.639 41.3229L195.535 41.2527L195.473 41.2142L195.442 41.1955L195.446 41.1981L195.498 41.2249L195.578 41.2657L195.683 41.318L195.818 41.3832L195.981 41.4618L196.175 41.5538L196.391 41.6561L191.876 51.3104L191.64 51.199L191.423 51.0959L191.216 50.9971L191.018 50.9006L190.824 50.8044L190.64 50.7098L190.454 50.6124L190.251 50.501L190.035 50.3758L189.812 50.2377L189.566 50.0728L189.305 49.8809L189.025 49.6523L188.732 49.3825L188.465 49.1047L188.223 48.8215L188.026 48.5621L187.883 48.3564L187.765 48.1751L187.69 48.0541L187.641 47.9744L187.604 47.9137L187.592 47.8935L187.582 47.8774L187.572 47.8626L187.562 47.8477L187.542 47.8194L187.515 47.7828L187.475 47.7309L187.418 47.6603L187.349 47.5767L187.256 47.4699L187.421 47.6492L187.42 47.6485ZM195.073 40.2529L195.159 40.3422L195.238 40.4326L195.073 40.2533V40.2529ZM186.553 31.3606L195.073 40.2529L187.42 47.6485L178.9 38.7562L186.332 31.1427L186.553 31.3603V31.3606ZM186.332 31.1431L186.446 31.2484L186.553 31.3606L186.332 31.1431ZM90.3689 13.9822L88.375 3.50546L91.7251 2.91549L95.0806 2.42932L98.4391 2.04657L101.798 1.76532L105.155 1.5852L108.507 1.50545L111.851 1.52415L115.187 1.64016L118.511 1.85348L121.821 2.1622L125.114 2.56556L128.388 3.06203L131.642 3.65124L134.872 4.33203L138.076 5.10364L141.252 5.96455L144.398 6.91399L147.51 7.95121L150.588 9.07505L153.629 10.2844L156.629 11.5784L159.587 12.956L162.502 14.4172L165.368 15.96L168.186 17.5838L170.953 19.2877L173.665 21.0709L176.321 22.9328L178.918 24.8714L181.454 26.887L183.926 28.9783L186.332 31.1439L179.121 38.9749L176.959 37.0291L174.737 35.1489L172.454 33.3351L170.112 31.5869L167.716 29.9075L165.267 28.2975L162.766 26.7569L160.217 25.2881L157.621 23.891L154.981 22.5676L152.299 21.3186L149.577 20.1448L146.818 19.0473L144.024 18.0272L141.197 17.0854L138.339 16.223L135.454 15.4407L132.543 14.74L129.608 14.1214L126.652 13.5861L123.677 13.1346L120.686 12.7683L117.681 12.4882L114.664 12.2947L111.637 12.1894L108.603 12.1722L105.564 12.2451L102.522 12.408L99.4786 12.6629L96.4376 13.0094L93.4004 13.4494L90.3685 13.9833L90.3689 13.9822ZM44.3098 34.6452L37.3714 26.5692L38.6448 25.4934L39.9541 24.4405L41.2997 23.4091L42.6776 22.4008L44.0865 21.4136L45.5264 20.4485L46.9948 19.5056L48.4892 18.5844L50.0095 17.6849L51.5535 16.808L53.1188 15.9536L54.706 15.1205L56.3122 14.3103L57.9355 13.5227L59.5742 12.7583L61.2277 12.0165L62.8945 11.2979L64.5713 10.6034L66.2588 9.93252L67.9543 9.28493L69.6567 8.66253L71.3636 8.06416L73.0743 7.49137L74.7866 6.94338L76.4997 6.42057L78.2123 5.92372L79.9215 5.45358L81.6266 5.009L83.3259 4.59228L85.0179 4.20228L86.7016 3.84013L88.3753 3.50546L90.3693 13.9822L88.8508 14.2855L87.319 14.6153L85.7751 14.9713L84.2208 15.3525L82.6588 15.7593L81.0904 16.1909L79.5186 16.6469L77.9441 17.1274L76.3688 17.6315L74.795 18.1593L73.2251 18.7092L71.6605 19.2816L70.1027 19.8761L68.5534 20.4924L67.0148 21.1297L65.4895 21.7868L63.9787 22.4646L62.4835 23.1622L61.0067 23.878L59.5509 24.6126L58.1164 25.3656L56.7052 26.136L55.32 26.9229L53.9618 27.7258L52.6338 28.544L51.3364 29.3774L50.0732 30.2246L48.8433 31.0855L47.6504 31.9586L46.4968 32.8436L45.3825 33.7392L44.3102 34.6448L44.3098 34.6452ZM10.7087 99.7145L0.157227 98.496L0.502204 95.6572L0.882285 92.8772L1.29862 90.1529L1.75387 87.4816L2.24997 84.8607L2.78918 82.2883L3.37305 79.7628L4.00385 77.2816L4.68311 74.8431L5.41313 72.4447L6.19619 70.0856L7.03344 67.7631L7.92717 65.4761L8.87852 63.2239L9.88903 61.0033L10.9613 58.814L12.0955 56.6545L13.2934 54.5224L14.5557 52.4171L15.8841 50.3358L17.28 48.2781L18.7439 46.2415L20.2768 44.2247L21.8796 42.2247L23.5541 40.2395L25.3011 38.267L27.121 36.3063L29.0157 34.3528L30.987 32.4047L33.0355 30.46L35.1626 28.5157L37.3706 26.5692L44.309 34.6452L42.2399 36.4692L40.2571 38.2811L38.359 40.0827L36.544 41.8766L34.8096 43.6649L33.1531 45.4497L31.574 47.2325L30.0689 49.0173L28.6352 50.8059L27.2717 52.6002L25.9758 54.4033L24.7447 56.2183L23.5766 58.0481L22.4684 59.8955L21.419 61.7638L20.4252 63.6558L19.4861 65.5746L18.5989 67.5246L17.7609 69.5078L16.9713 71.5281L16.2287 73.5876L15.5311 75.6906L14.8774 77.8399L14.2649 80.0379L13.6933 82.2887L13.1602 84.5936L12.6656 86.9558L12.2073 89.3778L11.7837 91.8632L11.3937 94.4128L11.0361 97.0299L10.7091 99.716L10.7087 99.7145ZM13.9249 129.794L3.65353 132.512V132.511L3.47761 131.805L3.30589 131.05L3.13492 130.238L2.96435 129.372L2.79338 128.454L2.62165 127.483L2.44993 126.465L2.27897 125.403L2.10839 124.302L1.93972 123.164L1.77334 121.997L1.60963 120.804L1.44973 119.589L1.29442 118.358L1.14406 117.116L0.999441 115.866L0.861294 114.615L0.730405 113.367L0.607528 112.126L0.493809 110.898L0.390003 109.687L0.295747 108.497L0.213323 107.333L0.143103 106.2L0.0850981 105.1L0.0415988 104.037L0.0129781 103.015L0 102.034L0.00496576 101.095L0.0297666 100.198L0.0774678 99.3355L0.154936 98.4968L10.7064 99.7152L10.6706 100.109L10.6419 100.633L10.6244 101.265L10.6209 101.988L10.6316 102.791L10.6564 103.665L10.6946 104.599L10.7465 105.587L10.8106 106.623L10.8869 107.698L10.9743 108.808L11.0724 109.946L11.18 111.106L11.296 112.283L11.4208 113.471L11.5521 114.664L11.6906 115.857L11.8341 117.045L11.9825 118.221L12.1348 119.379L12.2909 120.516L12.4489 121.625L12.6084 122.7L12.7683 123.736L12.9278 124.727L13.0858 125.665L13.2415 126.546L13.3933 127.363L13.5395 128.105L13.6784 128.766L13.8078 129.335L13.9223 129.797V129.796L13.9249 129.794ZM35.8213 176.3L27.3862 182.782L27.3858 182.782L26.3581 181.41L25.3484 180.014L24.3558 178.596L23.3801 177.157L22.4222 175.697L21.4819 174.218L20.5596 172.721L19.6548 171.207L18.7679 169.678L17.899 168.133L17.0488 166.575L16.2165 165.004L15.4021 163.421L14.6065 161.827L13.8299 160.224L13.072 158.612L12.3332 156.993L11.6135 155.367L10.9133 153.736L10.2321 152.1L9.57152 150.462L8.92965 148.821L8.30839 147.178L7.70736 145.535L7.1277 143.895L6.5675 142.255L6.02866 140.618L5.51082 138.985L5.01435 137.357L4.53924 135.735L4.08589 134.12L3.65391 132.513L13.9253 129.795L14.3248 131.283L14.7454 132.782L15.1873 134.289L15.649 135.805L16.1314 137.325L16.6332 138.85L17.1556 140.38L17.6975 141.912L18.2585 143.445L18.8381 144.979L19.4369 146.511L20.0543 148.041L20.6893 149.567L21.3426 151.088L22.0139 152.604L22.7023 154.113L23.4079 155.613L24.1303 157.104L24.8683 158.583L25.6231 160.051L26.394 161.506L27.1801 162.946L27.9819 164.371L28.7981 165.779L29.6289 167.17L30.4742 168.541L31.3328 169.892L32.2051 171.221L33.0905 172.527L33.9892 173.81L34.8993 175.068L35.822 176.3L35.8217 176.3L35.8213 176.3ZM82.8886 221.468L76.2917 229.829H76.2921L74.663 228.529L73.0308 227.218L71.3964 225.897L69.7601 224.565L68.1241 223.223L66.4885 221.87L64.8545 220.506L63.2227 219.132L61.5948 217.746L59.9718 216.35L58.3538 214.944L56.7422 213.525L55.1391 212.096L53.5432 210.657L51.9572 209.206L50.3816 207.744L48.817 206.27L47.2654 204.786L45.7267 203.291L44.2026 201.784L42.6933 200.265L41.2004 198.735L39.7248 197.194L38.2674 195.64L36.8295 194.075L35.4114 192.499L34.0144 190.91L32.6402 189.309L31.2881 187.696L29.9613 186.07L28.6596 184.432L27.3839 182.782L35.819 176.3L37.0046 177.834L38.2185 179.361L39.4588 180.88L40.7253 182.392L42.0178 183.897L43.334 185.394L44.6735 186.884L46.0354 188.366L47.4188 189.84L48.8223 191.307L50.245 192.765L51.6859 194.215L53.1452 195.658L54.6212 197.093L56.1122 198.519L57.6173 199.936L59.1368 201.346L60.6682 202.747L62.2118 204.14L63.7661 205.525L65.3292 206.9L66.9018 208.268L68.4817 209.627L70.0688 210.977L71.6612 212.319L73.2583 213.652L74.8595 214.976L76.4634 216.293L78.0685 217.6L79.6747 218.898L81.2808 220.188L82.8855 221.468H82.8859H82.8886ZM114.61 247.37L108.207 255.88H108.206L107.162 255.083L106.124 254.283L105.092 253.48L104.066 252.674L103.045 251.865L102.028 251.055L101.017 250.241L100.01 249.426L99.0062 248.609L98.0064 247.791L97.0104 246.971L96.0163 246.15L95.0256 245.329L94.0377 244.506L93.052 243.684L92.0666 242.86L91.084 242.037L90.1029 241.215L89.1214 240.392L88.1403 239.57L87.1599 238.749L86.1796 237.929L85.1984 237.111L84.2166 236.294L83.2332 235.478L82.2482 234.664L81.2622 233.852L80.2738 233.043L79.2824 232.236L78.2887 231.431L77.2923 230.629L76.2913 229.83L82.8882 221.47L83.9178 222.292L84.9428 223.116L85.9613 223.941L86.9752 224.767L87.9846 225.594L88.9897 226.421L89.9899 227.248L90.9871 228.075L91.9812 228.903L92.9714 229.729L93.9594 230.555L94.9444 231.38L95.927 232.203L96.9077 233.025L97.8881 233.846L98.8662 234.666L99.8431 235.482L100.82 236.298L101.797 237.11L102.773 237.92L103.75 238.727L104.727 239.532L105.706 240.333L106.686 241.131L107.668 241.926L108.651 242.716L109.636 243.503L110.624 244.285L111.616 245.064L112.61 245.837L113.608 246.606L114.61 247.371H114.609L114.61 247.37ZM122.501 253.936L115.615 262.059L115.621 262.063L115.373 261.851L115.123 261.638L114.875 261.425L114.629 261.214L114.388 261.006L114.144 260.797L113.9 260.587L113.66 260.38L113.423 260.177L113.185 259.973L112.946 259.768L112.709 259.565L112.475 259.364L112.243 259.166L112.01 258.968L111.778 258.771L111.549 258.577L111.32 258.386L111.089 258.192L110.861 258.001L110.637 257.815L110.414 257.631L110.187 257.445L109.963 257.262L109.74 257.081L109.52 256.904L109.299 256.728L109.079 256.553L108.86 256.381L108.643 256.212L108.427 256.046L108.208 255.879L114.612 247.369L114.868 247.564L115.126 247.763L115.383 247.963L115.638 248.163L115.892 248.364L116.145 248.566L116.398 248.769L116.649 248.972L116.897 249.175L117.144 249.378L117.395 249.585L117.646 249.793L117.891 249.997L118.135 250.202L118.382 250.41L118.628 250.618L118.872 250.825L119.116 251.032L119.361 251.241L119.604 251.449L119.846 251.656L120.086 251.863L120.329 252.071L120.573 252.281L120.815 252.489L121.054 252.695L121.294 252.902L121.538 253.11L121.778 253.317L122.017 253.522L122.257 253.727L122.499 253.933L122.505 253.938L122.501 253.936ZM122.495 253.932L122.501 253.936L122.623 254.041L122.495 253.932ZM139.473 282.457L115.615 262.059L122.5 253.936L146.358 274.335L146.507 274.467L139.472 282.457H139.473ZM146.358 274.335L146.433 274.399L146.507 274.466L146.358 274.334V274.335ZM175.741 303.382L167.605 310.239L167.745 310.399L166.683 309.231L165.658 308.109L164.667 307.032L163.707 305.995L162.777 304.997L161.874 304.036L160.994 303.108L160.137 302.21L159.299 301.34L158.476 300.494L157.669 299.67L156.872 298.865L156.083 298.075L155.302 297.299L154.524 296.533L153.747 295.775L152.968 295.02L152.184 294.268L151.392 293.513L150.591 292.754L149.779 291.989L148.952 291.213L148.107 290.426L147.242 289.622L146.355 288.8L145.444 287.959L144.505 287.093L143.537 286.202L142.538 285.282L141.503 284.331L140.433 283.345L139.324 282.324L146.506 274.465L147.612 275.484L148.68 276.467L149.713 277.418L150.715 278.34L151.686 279.234L152.63 280.104L153.55 280.954L154.448 281.786L155.326 282.601L156.188 283.405L157.034 284.198L157.869 284.984L158.694 285.766L159.511 286.545L160.323 287.325L161.133 288.109L161.942 288.898L162.753 289.697L163.568 290.506L164.389 291.329L165.219 292.168L166.061 293.026L166.915 293.905L167.786 294.809L168.675 295.739L169.583 296.698L170.515 297.69L171.471 298.716L172.456 299.779L173.471 300.882L174.518 302.028L175.6 303.22L175.74 303.38L175.741 303.382ZM175.602 303.221L175.674 303.301L175.741 303.382L175.602 303.221ZM186.582 332.947L167.606 310.239L175.742 303.382L194.718 326.09L195.03 326.502L186.582 332.948V332.947ZM194.718 326.09L194.885 326.29L195.03 326.502L194.718 326.09ZM193.121 333.657L200.972 340.841L193.39 341.117L193.148 340.884L192.908 340.646L192.669 340.406L192.428 340.159L192.192 339.912L191.953 339.658L191.714 339.4L191.477 339.141L191.24 338.877L191.003 338.609L190.769 338.341L190.534 338.07L190.298 337.794L190.066 337.519L189.834 337.241L189.603 336.959L189.376 336.682L189.149 336.4L188.923 336.117L188.7 335.834L188.481 335.553L188.265 335.274L188.048 334.991L187.835 334.71L187.628 334.434L187.421 334.154L187.219 333.877L187.022 333.606L186.828 333.335L186.638 333.066L186.452 332.799L186.271 332.535L195.03 326.502L195.172 326.709L195.319 326.921L195.472 327.137L195.631 327.359L195.795 327.586L195.962 327.814L196.132 328.043L196.309 328.28L196.487 328.515L196.667 328.75L196.853 328.991L197.04 329.23L197.228 329.468L197.417 329.706L197.609 329.943L197.803 330.181L197.995 330.414L198.188 330.645L198.383 330.876L198.574 331.1L198.766 331.323L198.959 331.543L199.148 331.756L199.335 331.964L199.521 332.168L199.701 332.364L199.879 332.553L200.057 332.738L200.225 332.911L200.391 333.078L200.55 333.235L200.702 333.381L193.12 333.657H193.121ZM200.972 340.841L197.321 344.865L193.39 341.117L200.972 340.841H200.972ZM222.331 295.941L229.791 303.535H229.79L228.882 304.456L227.947 305.446L226.99 306.499L226.012 307.609L225.018 308.773L224.012 309.981L222.996 311.23L221.973 312.514L220.944 313.828L219.915 315.166L218.885 316.523L217.858 317.895L216.837 319.275L215.823 320.659L214.819 322.041L213.826 323.418L212.847 324.783L211.884 326.131L210.939 327.458L210.013 328.76L209.11 330.031L208.23 331.267L207.376 332.464L206.549 333.616L205.75 334.72L204.981 335.771L204.243 336.766L203.535 337.703L202.857 338.579L202.208 339.392L201.582 340.145L200.971 340.841L193.121 333.657L193.511 333.211L193.98 332.645L194.516 331.974L195.108 331.208L195.752 330.357L196.442 329.427L197.174 328.425L197.945 327.36L198.753 326.235L199.594 325.058L200.467 323.831L201.369 322.563L202.296 321.258L203.248 319.921L204.222 318.557L205.215 317.171L206.227 315.769L207.255 314.354L208.297 312.932L209.351 311.509L210.415 310.088L211.487 308.674L212.566 307.272L213.65 305.887L214.736 304.523L215.825 303.185L216.914 301.878L218.001 300.605L219.087 299.37L220.172 298.178L221.253 297.034L222.331 295.941H222.33H222.331ZM232.542 292.413L239.817 284.641L240.58 291.513L240.326 291.878L240.064 292.234L239.793 292.589L239.506 292.952L239.206 293.322L238.892 293.701L238.561 294.093L238.219 294.493L237.865 294.902L237.499 295.319L237.124 295.743L236.74 296.172L236.351 296.605L235.954 297.042L235.556 297.479L235.155 297.914L234.753 298.35L234.353 298.781L233.956 299.206L233.563 299.625L233.177 300.035L232.797 300.436L232.429 300.824L232.071 301.198L231.727 301.557L231.396 301.901L231.079 302.228L230.782 302.532L230.505 302.816L230.248 303.077L230.01 303.317L229.791 303.535L222.332 295.941L222.506 295.768L222.711 295.561L222.944 295.324L223.201 295.063L223.478 294.779L223.772 294.475L224.085 294.15L224.414 293.807L224.756 293.449L225.109 293.077L225.471 292.695L225.841 292.303L226.216 291.902L226.595 291.496L226.977 291.085L227.358 290.672L227.738 290.257L228.115 289.845L228.485 289.437L228.848 289.033L229.203 288.636L229.545 288.25L229.874 287.875L230.187 287.514L230.482 287.17L230.755 286.845L231.007 286.541L231.232 286.264L231.426 286.018L231.588 285.807L231.707 285.645L231.78 285.541L232.543 292.413L232.542 292.413ZM239.817 284.641L243.111 287.75L240.58 291.513L239.816 284.641H239.817ZM238.719 283.605L239.817 284.641L232.542 292.413L231.445 291.377L237.757 282.884L238.719 283.605ZM237.757 282.884L238.279 283.189L238.719 283.605L237.757 282.883V282.884ZM224.583 280.486L216.658 273.385L223.864 272.712L224.149 272.934L224.461 273.175L224.798 273.437L225.152 273.713L225.53 274.007L225.926 274.314L226.341 274.636L226.771 274.969L227.217 275.313L227.675 275.665L228.146 276.027L228.627 276.395L229.116 276.768L229.613 277.145L230.114 277.523L230.619 277.903L231.128 278.284L231.636 278.661L232.142 279.035L232.646 279.405L233.146 279.769L233.639 280.125L234.123 280.47L234.597 280.805L235.061 281.128L235.509 281.436L235.941 281.729L236.354 282.004L236.745 282.259L237.112 282.492L237.45 282.701L237.756 282.884L232.406 292.099L231.95 291.826L231.485 291.539L231.012 291.238L230.529 290.924L230.039 290.597L229.538 290.258L229.03 289.908L228.515 289.549L227.992 289.18L227.463 288.803L226.933 288.421L226.4 288.033L225.865 287.641L225.329 287.245L224.795 286.848L224.266 286.451L223.738 286.056L223.216 285.661L222.703 285.272L222.198 284.886L221.703 284.508L221.22 284.137L220.749 283.775L220.294 283.423L219.855 283.084L219.434 282.757L219.033 282.446L218.652 282.15L218.293 281.871L217.963 281.614L217.656 281.376L217.377 281.159L224.583 280.487L224.583 280.486ZM216.658 273.385L219.949 269.68L223.864 272.712L216.658 273.385H216.658ZM198.257 294.1L216.658 273.385L224.583 280.486L206.183 301.201L198.194 294.173L198.257 294.1ZM198.194 294.173L198.228 294.132L198.257 294.1L198.194 294.173ZM192.553 309.009L200.334 301.748L192.38 301.946L192.532 301.762L192.685 301.573L192.839 301.379L192.994 301.18L193.149 300.978L193.308 300.768L193.467 300.553L193.629 300.333L193.793 300.109L193.955 299.885L194.12 299.653L194.288 299.418L194.456 299.179L194.628 298.936L194.799 298.693L194.974 298.443L195.153 298.188L195.332 297.934L195.512 297.678L195.698 297.416L195.885 297.154L196.075 296.891L196.268 296.626L196.467 296.355L196.669 296.085L196.872 295.816L197.081 295.544L197.295 295.27L197.512 294.996L197.735 294.721L197.961 294.447L198.194 294.173L206.246 301.128L206.093 301.31L205.938 301.497L205.782 301.689L205.626 301.886L205.469 302.087L205.311 302.294L205.149 302.507L204.989 302.722L204.829 302.94L204.665 303.165L204.499 303.395L204.333 303.627L204.167 303.861L203.996 304.102L203.825 304.345L203.654 304.588L203.479 304.837L203.301 305.091L203.123 305.345L202.941 305.602L202.757 305.861L202.571 306.122L202.38 306.387L202.188 306.65L201.993 306.915L201.793 307.184L201.59 307.452L201.382 307.724L201.169 307.996L200.954 308.267L200.733 308.539L200.508 308.811L192.553 309.009V309.009ZM200.508 308.811L196.642 313.428L192.553 309.009L200.508 308.811ZM176.786 276.3L200.334 301.748L192.553 309.009L169.006 283.561L176.735 276.245L176.786 276.3V276.3ZM176.735 276.245L176.759 276.27L176.786 276.299L176.735 276.245L176.735 276.245ZM59.4383 189.536L66.7206 181.772L69.7299 184.583L72.8465 187.43L76.0627 190.308L79.3701 193.215L82.7607 196.149L86.2261 199.106L89.7587 202.084L93.35 205.08L96.9928 208.092L100.678 211.117L104.399 214.153L108.146 217.197L111.913 220.247L115.69 223.3L119.471 226.354L123.247 229.407L127.011 232.455L130.755 235.497L134.471 238.532L138.151 241.554L141.787 244.565L145.372 247.56L148.899 250.538L152.358 253.497L155.744 256.434L159.048 259.348L162.262 262.237L165.379 265.099L168.393 267.932L171.296 270.735L174.078 273.507L176.735 276.246L169.057 283.616L166.535 281.017L163.875 278.367L161.083 275.67L158.168 272.93L155.138 270.148L152.002 267.33L148.768 264.477L145.444 261.593L142.037 258.68L138.558 255.742L135.013 252.78L131.41 249.798L127.757 246.797L124.064 243.781L120.337 240.752L116.584 237.712L112.813 234.664L109.032 231.611L105.25 228.554L101.473 225.496L97.7103 222.439L93.969 219.386L90.2567 216.339L86.5814 213.3L82.9515 210.272L79.3736 207.255L75.8559 204.254L72.4061 201.269L69.0323 198.303L65.741 195.358L62.5404 192.435L59.4383 189.537V189.536ZM23.0229 127.166L33.4717 125.251L33.8384 127.109L34.2658 128.982L34.752 130.868L35.2954 132.763L35.8949 134.668L36.5486 136.579L37.2554 138.493L38.0136 140.41L38.8211 142.327L39.6759 144.241L40.5765 146.152L41.5214 148.056L42.509 149.953L43.5359 151.838L44.6021 153.711L45.705 155.57L46.8418 157.413L48.0118 159.237L49.2127 161.041L50.4426 162.822L51.6993 164.58L52.9807 166.311L54.285 168.015L55.6108 169.689L56.9548 171.33L58.3156 172.938L59.6921 174.511L61.0807 176.046L62.4801 177.541L63.8879 178.995L65.3017 180.406L66.7202 181.772L59.4379 189.536L57.8825 188.038L56.3362 186.496L54.8014 184.911L53.2791 183.283L51.7718 181.617L50.2804 179.913L48.8059 178.171L47.3516 176.395L45.9183 174.585L44.5082 172.743L43.1222 170.871L41.7633 168.97L40.4323 167.042L39.1317 165.088L37.8625 163.11L36.6272 161.109L35.4275 159.086L34.2651 157.044L33.142 154.983L32.0605 152.906L31.0218 150.813L30.0281 148.706L29.0817 146.586L28.1845 144.455L27.3377 142.315L26.5447 140.165L25.8063 138.009L25.1259 135.846L24.5047 133.68L23.9452 131.51L23.4499 129.338L23.0213 127.165L23.0229 127.166ZM61.1704 33.0153L66.0611 42.4838L66.5442 42.1987L63.491 44.2884L60.6003 46.3964L57.8691 48.5231L55.2936 50.6693L52.8704 52.8353L50.5979 55.0216L48.4709 57.2292L46.4869 59.4585L44.6414 61.7115L42.931 63.9894L41.3519 66.2943L39.9003 68.6278L38.5719 70.993L37.3641 73.3907L36.2731 75.8254L35.2958 78.2997L34.4295 80.8164L33.6709 83.3785L33.0195 85.9884L32.4723 88.6501L32.0273 91.3645L31.6831 94.1354L31.4385 96.9631L31.2923 99.8507L31.2423 102.8L31.2878 105.812L31.4263 108.887L31.6579 112.027L31.9792 115.233L32.3906 118.505L32.8886 121.844L33.4717 125.252L23.0229 127.166L22.402 123.539L21.8693 119.963L21.4262 116.436L21.077 112.956L20.824 109.523L20.671 106.135L20.621 102.791L20.6771 99.4901L20.8424 96.2315L21.1209 93.0146L21.5151 89.8396L22.0288 86.7054L22.6653 83.6129L23.4274 80.5615L24.3173 77.5541L25.3377 74.5889L26.4921 71.6685L27.7804 68.7923L29.2061 65.9623L30.7695 63.1792L32.4723 60.4419L34.3151 57.7523L36.2998 55.1093L38.4258 52.5132L40.6952 49.9633L43.1089 47.4581L45.6672 44.9974L48.372 42.5788L51.2249 40.2014L54.2274 37.8636L57.381 35.5637L60.6873 33.3L61.1704 33.0149V33.0153ZM60.6873 33.3004L60.9209 33.1454L61.1704 33.0153L60.6873 33.3004ZM78.1169 36.2036L66.0611 42.4838L61.1704 33.0153L73.2262 26.7352L73.6796 26.5253L78.1165 36.2036H78.1169ZM73.2262 26.7352L73.4483 26.6195L73.6796 26.5253L73.2262 26.7352ZM88.6722 22.1188L91.0752 32.5089L90.5879 32.6226L90.109 32.7344L89.6385 32.844L89.1752 32.9527L88.7207 33.0596L88.2735 33.1657L87.8316 33.2714L87.3969 33.3763L86.9683 33.4809L86.5444 33.5858L86.1284 33.6904L85.7144 33.7961L85.3042 33.9022L84.8989 34.0098L84.4959 34.1181L84.0994 34.2273L83.7018 34.3395L83.3057 34.4532L82.9126 34.5692L82.5188 34.6879L82.1269 34.8089L81.7353 34.9329L81.3408 35.0611L80.9435 35.1931L80.5459 35.329L80.1467 35.4679L79.7453 35.6114L79.3381 35.7606L78.9252 35.9155L78.51 36.075L78.0898 36.2403L77.6628 36.412L73.6792 26.5241L74.181 26.3223L74.6782 26.1269L75.1709 25.938L75.6571 25.7559L76.1398 25.5785L76.6214 25.406L77.0976 25.2396L77.5701 25.079L78.0376 24.9237L78.5031 24.7722L78.9687 24.6249L79.4308 24.4821L79.8895 24.344L80.3474 24.2089L80.8031 24.0776L81.2572 23.9494L81.714 23.8235L82.1669 23.7014L82.6203 23.5815L83.0729 23.464L83.5266 23.3476L83.9834 23.2331L84.4383 23.1206L84.8962 23.0084L85.3564 22.8973L85.8178 22.787L86.2837 22.6764L86.7535 22.5657L87.2252 22.4554L87.7018 22.3436L88.183 22.2318L88.6703 22.1181L88.6722 22.1188ZM134.574 23.3518L132.52 33.8174L131.026 33.5228L129.561 33.2385L128.125 32.9649L126.714 32.7028L125.329 32.452L123.969 32.2147L122.631 31.9907L121.313 31.7804L120.014 31.585L118.733 31.4053L117.467 31.2412L116.215 31.0931L114.976 30.9626L113.746 30.8497L112.526 30.7539L111.312 30.6779L110.102 30.6203L108.896 30.5829L107.689 30.5661L106.48 30.5699L105.268 30.5951L104.051 30.6428L102.825 30.7134L101.588 30.8077L100.34 30.926L99.0764 31.0699L97.7961 31.2397L96.4975 31.4362L95.1783 31.6602L93.8358 31.9136L92.4685 32.196L91.0748 32.5085L88.6719 22.1184L90.2399 21.7666L91.7858 21.4472L93.3111 21.1598L94.8192 20.9034L96.309 20.6783L97.782 20.4829L99.2409 20.3169L100.686 20.1795L102.118 20.0704L103.539 19.9883L104.951 19.933L106.353 19.904L107.746 19.8994L109.133 19.9192L110.516 19.962L111.894 20.0268L113.269 20.1135L114.643 20.2203L116.015 20.347L117.39 20.4916L118.767 20.6542L120.149 20.8332L121.536 21.0282L122.932 21.2381L124.337 21.4617L125.752 21.6987L127.181 21.9483L128.623 22.2093L130.081 22.4806L131.558 22.7618L133.055 23.0522L134.573 23.351L134.574 23.3518ZM193.88 75.0885L184.36 79.8181L183.403 77.9135L182.404 76.0062L181.365 74.1001L180.285 72.1989L179.163 70.3065L178 68.4256L176.796 66.5591L175.55 64.7118L174.261 62.8854L172.931 61.0838L171.558 59.3105L170.142 57.568L168.685 55.8603L167.183 54.19L165.639 52.5602L164.052 50.9738L162.422 49.434L160.749 47.9446L159.031 46.5075L157.271 45.1249L155.466 43.8015L153.616 42.538L151.721 41.3378L149.781 40.2037L147.795 39.1382L145.762 38.1434L143.682 37.2225L141.552 36.3784L139.372 35.6121L137.141 34.9279L134.858 34.328L132.52 33.8155L134.574 23.3499L137.334 23.9555L140.035 24.6649L142.676 25.4743L145.255 26.3803L147.772 27.3785L150.229 28.4654L152.623 29.6361L154.955 30.8867L157.226 32.2143L159.436 33.614L161.585 35.0817L163.674 36.6139L165.703 38.2059L167.673 39.8545L169.584 41.5565L171.438 43.3065L173.233 45.1012L174.974 46.9379L176.659 48.8128L178.29 50.7223L179.866 52.6628L181.389 54.6304L182.861 56.6224L184.281 58.6346L185.65 60.6652L186.97 62.7091L188.24 64.764L189.462 66.8266L190.636 68.8934L191.763 70.9606L192.844 73.0259L193.88 75.0869V75.0885ZM189.735 83.9922L199.191 88.8504L190.807 90.2895L190.478 89.964L190.171 89.6369L189.881 89.3072L189.604 88.9745L189.34 88.6398L189.085 88.3021L188.841 87.9647L188.604 87.6239L188.375 87.2813L188.151 86.9367L187.932 86.5879L187.718 86.2383L187.51 85.8895L187.308 85.543L187.107 85.1912L186.911 84.8397L186.721 84.4925L186.533 84.1437L186.349 83.7968L186.171 83.456L185.996 83.1168L185.824 82.7809L185.658 82.4524L185.494 82.1253L185.334 81.8036L185.182 81.4942L185.033 81.1927L184.887 80.8954L184.746 80.6065L184.612 80.3318L184.484 80.0708L184.36 79.8193L193.88 75.0896L194.012 75.356L194.146 75.6307L194.282 75.9086L194.418 76.1875L194.557 76.4707L194.7 76.7618L194.845 77.0557L194.99 77.3465L195.136 77.6388L195.286 77.9353L195.436 78.2291L195.587 78.5218L195.74 78.8145L195.891 79.1011L196.043 79.3835L196.197 79.6636L196.349 79.9357L196.499 80.1997L196.652 80.4615L196.801 80.7122L196.947 80.9508L197.089 81.1778L197.229 81.3942L197.366 81.598L197.496 81.7853L197.621 81.9582L197.736 82.1108L197.841 82.2444L197.935 82.357L198.015 82.4478L198.077 82.5146L198.119 82.5558L189.735 83.9949L189.735 83.9922ZM199.191 88.8504L195.957 95.1989L190.807 90.2895L199.191 88.8504ZM205.78 54.8246L214.366 61.1033V61.1036L213.839 61.8417L213.318 62.5919L212.803 63.354L212.294 64.1275L211.791 64.9121L211.293 65.7078L210.8 66.5137L210.312 67.3292L209.828 68.155L209.348 68.9911L208.872 69.8352L208.401 70.6858L207.932 71.5464L207.466 72.4145L207.002 73.2896L206.542 74.1707L206.083 75.0591L205.625 75.9528L205.169 76.8515L204.714 77.7567L204.26 78.6653L203.806 79.5781L203.352 80.4951L202.897 81.4159L202.441 82.3402L201.984 83.2656L201.525 84.1937L201.064 85.1236L200.601 86.054L200.135 86.9863L199.666 87.9182L199.193 88.8501L189.737 83.9918L190.194 83.0908L190.65 82.1853L191.105 81.2755L191.559 80.3616L192.014 79.4442L192.469 78.5233L192.925 77.5995L193.382 76.6744L193.84 75.7471L194.3 74.8175L194.763 73.8868L195.229 72.9557L195.697 72.0257L196.17 71.0938L196.646 70.163L197.127 69.2338L197.613 68.3054L198.103 67.3788L198.599 66.4546L199.102 65.5326L199.611 64.6122L200.128 63.6971L200.651 62.7862L201.182 61.8787L201.723 60.9754L202.272 60.0775L202.83 59.1861L203.399 58.2992L203.978 57.4196L204.567 56.5465L205.168 55.6814L205.78 54.8239V54.8243L205.78 54.8246ZM216.171 42.8665L223.663 50.4262V50.4266L223.321 50.7697L222.984 51.1085L222.654 51.4424L222.329 51.7725L222.01 52.0996L221.695 52.4232L221.387 52.7426L221.083 53.0605L220.784 53.3753L220.488 53.6897L220.195 54.0038L219.908 54.3141L219.624 54.6243L219.342 54.9365L219.06 55.2513L218.783 55.5627L218.509 55.876L218.234 56.1942L217.961 56.5136L217.689 56.8357L217.417 57.1609L217.146 57.4906L216.874 57.8245L216.601 58.1637L216.328 58.5072L216.055 58.856L215.777 59.2132L215.5 59.5757L215.221 59.9451L214.939 60.3229L214.654 60.7091L214.366 61.1033L205.78 54.8246L206.103 54.382L206.423 53.9481L206.741 53.5218L207.059 53.1013L207.376 52.688L207.69 52.2824L208.004 51.8805L208.319 51.4856L208.631 51.0971L208.944 50.7128L209.257 50.3335L209.57 49.958L209.884 49.5867L210.198 49.2196L210.511 48.8574L210.828 48.4949L211.147 48.1358L211.463 47.7832L211.782 47.4302L212.105 47.0776L212.43 46.7265L212.754 46.3793L213.081 46.0316L213.412 45.6836L213.745 45.3356L214.082 44.9868L214.42 44.6383L214.762 44.2888L215.108 43.937L215.459 43.5821L215.813 43.2264L216.171 42.8665V42.8669L216.171 42.8665ZM235.533 29.1939L240.447 38.6501L239.801 38.9898L239.168 39.326L238.548 39.6587L237.941 39.9881L237.347 40.3143L236.765 40.6391L236.194 40.9619L235.635 41.284L235.084 41.6057L234.543 41.9285L234.011 42.251L233.49 42.5742L232.973 42.9009L232.465 43.2302L231.962 43.563L231.465 43.8992L230.973 44.24L230.484 44.5868L229.999 44.9394L229.516 45.2997L229.035 45.6668L228.555 46.0423L228.075 46.4277L227.596 46.8215L227.115 47.2264L226.633 47.6431L226.147 48.0725L225.658 48.5147L225.165 48.9708L224.669 49.4409L224.169 49.9252L223.662 50.4266L216.169 42.8669L216.756 42.2869L217.34 41.7202L217.922 41.1691L218.502 40.6322L219.081 40.1083L219.659 39.5973L220.237 39.0982L220.815 38.6101L221.394 38.1338L221.973 37.6698L222.553 37.2157L223.134 36.7715L223.717 36.3372L224.301 35.9121L224.888 35.4958L225.478 35.0867L226.07 34.686L226.665 34.2922L227.265 33.9048L227.866 33.524L228.474 33.1473L229.086 32.7764L229.7 32.4104L230.321 32.0472L230.948 31.6865L231.58 31.329L232.22 30.9725L232.866 30.6176L233.519 30.2628L234.181 29.9082L234.851 29.5522L235.531 29.1942L235.533 29.1939ZM258.42 20.7027L260.361 31.1893L259.78 31.3026L259.19 31.427L258.59 31.5629L257.98 31.7094L257.365 31.8663L256.741 32.0342L256.111 32.2112L255.477 32.3975L254.836 32.5936L254.192 32.7978L253.546 33.01L252.897 33.2305L252.245 33.4587L251.594 33.693L250.943 33.9346L250.291 34.183L249.64 34.4368L248.99 34.6959L248.344 34.9596L247.699 35.2286L247.06 35.5011L246.425 35.777L245.793 36.0575L245.168 36.3403L244.55 36.6246L243.938 36.9123L243.333 37.2008L242.738 37.4904L242.15 37.7808L241.572 38.0716L241.005 38.3616L240.448 38.6513L235.534 29.195L236.155 28.8722L236.787 28.5489L237.429 28.2265L238.08 27.9044L238.741 27.5831L239.411 27.2637L240.088 26.9458L240.776 26.6291L241.468 26.3161L242.167 26.0063L242.875 25.6979L243.588 25.3946L244.305 25.0954L245.029 24.7996L245.757 24.5092L246.488 24.2238L247.223 23.9444L247.962 23.6705L248.704 23.4029L249.447 23.1431L250.193 22.8897L250.941 22.6435L251.689 22.4062L252.438 22.1776L253.188 21.9574L253.937 21.7464L254.687 21.5453L255.437 21.3545L256.184 21.1747L256.93 21.0057L257.676 20.8481L258.419 20.7038L258.42 20.7027ZM334.426 36.038L328.378 44.8074L326.387 43.455L324.397 42.169L322.408 40.9478L320.42 39.7923L318.431 38.7001L316.439 37.6717L314.447 36.7055L312.45 35.8014L310.449 34.9577L308.441 34.1754L306.426 33.4519L304.404 32.7875L302.372 32.1811L300.33 31.6327L298.275 31.1416L296.207 30.7069L294.125 30.3284L292.028 30.0059L289.912 29.7388L287.779 29.5262L285.627 29.369L283.454 29.2664L281.259 29.2171L279.041 29.2229L276.8 29.282L274.533 29.395L272.241 29.561L269.922 29.7808L267.575 30.0536L265.2 30.3795L262.795 30.7577L260.36 31.1889L258.419 20.7023L261.05 20.2364L263.658 19.8254L266.245 19.4708L268.812 19.1724L271.359 18.9312L273.887 18.7481L276.397 18.6229L278.888 18.5573L281.363 18.5515L283.821 18.6061L286.263 18.7217L288.688 18.8992L291.099 19.1388L293.494 19.4415L295.875 19.8078L298.241 20.2379L300.592 20.7321L302.931 21.2911L305.256 21.9151L307.567 22.6046L309.866 23.3598L312.152 24.1807L314.426 25.0675L316.688 26.0208L318.938 27.0397L321.178 28.125L323.408 29.2774L325.628 30.4959L327.839 31.7812L330.041 33.1332L332.236 34.5517L334.424 36.0376L334.426 36.038ZM356.027 59.2452L347.376 65.4345L346.874 64.7289L346.365 64.0195L345.85 63.3082L345.33 62.5965L344.804 61.8844L344.271 61.1712L343.733 60.458L343.188 59.7466L342.638 59.0376L342.081 58.3316L341.519 57.6287L340.95 56.9296L340.376 56.2358L339.795 55.5463L339.209 54.8628L338.616 54.1862L338.017 53.5169L337.413 52.8559L336.803 52.2041L336.187 51.5615L335.565 50.928L334.938 50.306L334.305 49.6947L333.668 49.0959L333.025 48.5098L332.375 47.9366L331.722 47.3775L331.063 46.8326L330.399 46.3022L329.73 45.7874L329.057 45.2894L328.378 44.8074L334.426 36.038L335.274 36.641L336.111 37.2599L336.934 37.8934L337.744 38.5402L338.542 39.2L339.328 39.8724L340.101 40.5563L340.864 41.2504L341.614 41.9549L342.352 42.6677L343.08 43.3897L343.796 44.1194L344.501 44.8555L345.196 45.5989L345.88 46.3468L346.554 47.1001L347.217 47.8576L347.87 48.6182L348.514 49.3818L349.147 50.1476L349.772 50.9151L350.386 51.6832L350.991 52.4514L351.586 53.2188L352.173 53.9847L352.749 54.7479L353.317 55.5081L353.877 56.2664L354.428 57.0204L354.969 57.768L355.502 58.5106L356.026 59.2471L356.027 59.2452ZM355.967 151.332L346.683 146.148H346.684L347.896 143.868L349.046 141.521L350.132 139.11L351.152 136.643L352.105 134.122L352.988 131.555L353.8 128.945L354.54 126.299L355.204 123.622L355.794 120.918L356.305 118.194L356.739 115.453L357.092 112.704L357.364 109.949L357.554 107.194L357.661 104.445L357.683 101.708L357.619 98.9856L357.469 96.2853L357.232 93.6125L356.907 90.9714L356.493 88.3673L355.989 85.8056L355.396 83.2915L354.713 80.8298L353.939 78.4245L353.074 76.0807L352.118 73.804L351.071 71.5968L349.932 69.4643L348.7 67.409L347.376 65.4345L356.027 59.2452L357.659 61.6776L359.166 64.1916L360.548 66.7797L361.809 69.4361L362.951 72.155L363.975 74.9305L364.885 77.7567L365.683 80.6294L366.37 83.5434L366.95 86.4936L367.424 89.4748L367.795 92.4834L368.064 95.5145L368.233 98.5632L368.305 101.624L368.281 104.694L368.162 107.769L367.949 110.843L367.646 113.912L367.253 116.972L366.771 120.019L366.202 123.046L365.547 126.052L364.807 129.03L363.984 131.976L363.079 134.885L362.092 137.754L361.024 140.579L359.877 143.353L358.652 146.073L357.348 148.734L355.967 151.331H355.967L355.967 151.332ZM339.014 162.791L338.108 173.419L334.496 164.673L334.87 164.222L335.247 163.757L335.629 163.276L336.014 162.781L336.402 162.274L336.793 161.753L337.186 161.221L337.582 160.677L337.979 160.123L338.377 159.56L338.776 158.988L339.174 158.409L339.574 157.82L339.972 157.226L340.369 156.627L340.766 156.019L341.161 155.408L341.554 154.795L341.944 154.177L342.332 153.558L342.718 152.935L343.101 152.31L343.479 151.687L343.854 151.062L344.226 150.438L344.592 149.816L344.955 149.196L345.312 148.578L345.664 147.964L346.009 147.354L346.349 146.748L346.683 146.148L355.967 151.332L355.611 151.971L355.25 152.614L354.882 153.263L354.508 153.915L354.128 154.571L353.744 155.229L353.355 155.891L352.96 156.554L352.561 157.218L352.157 157.884L351.749 158.548L351.338 159.212L350.922 159.876L350.504 160.538L350.081 161.198L349.657 161.853L349.231 162.506L348.8 163.157L348.367 163.802L347.934 164.44L347.498 165.075L347.059 165.704L346.62 166.325L346.18 166.939L345.739 167.546L345.296 168.145L344.852 168.735L344.407 169.316L343.963 169.886L343.518 170.447L343.072 170.998L342.625 171.536L339.014 162.79L339.014 162.791ZM338.108 173.419L327.909 172.541L334.496 164.673L338.108 173.419ZM354.138 171.171L363.593 176.029L356.755 178.494L355.673 178.021L354.678 177.581L353.764 177.174L352.927 176.797L352.163 176.452L351.467 176.137L350.835 175.849L350.264 175.592L349.749 175.363L349.289 175.162L348.879 174.987L348.515 174.838L348.191 174.712L347.903 174.608L347.641 174.519L347.397 174.445L347.159 174.38L346.912 174.32L346.647 174.263L346.347 174.208L346.008 174.153L345.621 174.099L345.178 174.044L344.68 173.989L344.118 173.932L343.488 173.873L342.79 173.812L342.018 173.747L341.167 173.676L340.236 173.598L339.217 173.512L338.108 173.418L339.014 162.79L340.108 162.884L341.116 162.968L342.046 163.046L342.904 163.117L343.701 163.185L344.443 163.25L345.134 163.315L345.786 163.38L346.408 163.449L347.002 163.522L347.58 163.603L348.146 163.695L348.702 163.797L349.256 163.915L349.802 164.048L350.344 164.196L350.877 164.359L351.4 164.535L351.92 164.724L352.434 164.924L352.953 165.136L353.482 165.36L354.025 165.598L354.594 165.852L355.196 166.123L355.838 166.414L356.529 166.728L357.278 167.067L358.089 167.431L358.971 167.824L359.931 168.249L360.975 168.705L354.137 171.17L354.138 171.171ZM363.593 176.029L361.326 180.482L356.756 178.494L363.594 176.029H363.593ZM360.125 161.967L369.052 167.746V167.746L368.862 168.042L368.667 168.338L368.472 168.633L368.276 168.925L368.077 169.221L367.874 169.518L367.675 169.81L367.473 170.103L367.271 170.397L367.069 170.688L366.869 170.977L366.668 171.267L366.47 171.553L366.274 171.836L366.079 172.119L365.889 172.395L365.7 172.67L365.516 172.941L365.336 173.207L365.159 173.471L364.988 173.728L364.821 173.982L364.662 174.227L364.511 174.463L364.366 174.694L364.226 174.92L364.098 175.132L363.977 175.336L363.865 175.529L363.764 175.71L363.673 175.879L363.594 176.031L354.138 171.172L354.302 170.858L354.469 170.55L354.641 170.242L354.817 169.938L354.996 169.634L355.18 169.331L355.365 169.032L355.554 168.732L355.748 168.429L355.943 168.129L356.138 167.832L356.338 167.532L356.537 167.235L356.739 166.937L356.941 166.64L357.143 166.344L357.348 166.047L357.549 165.756L357.752 165.462L357.954 165.172L358.152 164.885L358.35 164.6L358.546 164.317L358.738 164.039L358.927 163.763L359.114 163.489L359.294 163.225L359.471 162.963L359.645 162.704L359.812 162.452L359.972 162.208L360.126 161.97V161.969L360.125 161.967ZM365.243 153.047L374.609 158.076V158.076L374.427 158.418L374.247 158.756L374.072 159.084L373.899 159.407L373.728 159.725L373.56 160.036L373.394 160.345L373.23 160.648L373.067 160.947L372.905 161.243L372.744 161.537L372.582 161.83L372.422 162.119L372.261 162.407L372.099 162.695L371.939 162.978L371.776 163.264L371.611 163.552L371.447 163.835L371.28 164.121L371.109 164.412L370.939 164.699L370.765 164.99L370.588 165.283L370.41 165.578L370.227 165.877L370.042 166.177L369.85 166.485L369.658 166.792L369.46 167.105L369.257 167.424L369.051 167.747L360.123 161.968L360.313 161.671L360.497 161.382L360.676 161.097L360.853 160.816L361.021 160.546L361.188 160.275L361.35 160.01L361.51 159.746L361.667 159.486L361.821 159.229L361.974 158.971L362.122 158.718L362.271 158.463L362.42 158.206L362.565 157.953L362.71 157.697L362.858 157.436L363.003 157.178L363.15 156.915L363.297 156.65L363.445 156.382L363.595 156.108L363.747 155.83L363.901 155.547L364.057 155.258L364.216 154.963L364.378 154.662L364.542 154.355L364.711 154.04L364.885 153.716L365.06 153.388L365.24 153.048V153.049L365.243 153.047ZM378.125 101.594L388.741 101.9V101.9L388.68 103.645L388.593 105.404L388.482 107.173L388.345 108.952L388.184 110.74L387.999 112.534L387.789 114.335L387.555 116.142L387.297 117.953L387.014 119.766L386.707 121.582L386.375 123.398L386.02 125.214L385.64 127.028L385.236 128.84L384.807 130.647L384.354 132.449L383.877 134.244L383.375 136.033L382.849 137.814L382.299 139.583L381.724 141.343L381.124 143.09L380.5 144.824L379.851 146.543L379.178 148.246L378.479 149.934L377.755 151.603L377.007 153.252L376.233 154.882L375.434 156.491L374.609 158.075L365.243 153.047L365.975 151.639L366.688 150.205L367.38 148.746L368.053 147.263L368.706 145.758L369.337 144.232L369.949 142.686L370.539 141.121L371.108 139.54L371.657 137.942L372.183 136.332L372.688 134.707L373.172 133.071L373.634 131.425L374.074 129.769L374.491 128.106L374.887 126.437L375.261 124.764L375.612 123.087L375.941 121.407L376.248 119.728L376.531 118.049L376.793 116.371L377.032 114.697L377.249 113.028L377.442 111.365L377.613 109.709L377.761 108.063L377.886 106.427L377.988 104.802L378.068 103.191L378.125 101.594V101.594L378.125 101.594ZM363.456 54.577L372.133 48.4254L373.043 49.7611L373.933 51.1467L374.804 52.5789L375.654 54.0557L376.485 55.5737L377.295 57.1315L378.085 58.7255L378.854 60.3519L379.601 62.0096L380.326 63.6932L381.028 65.4032L381.706 67.1346L382.359 68.885L382.987 70.6515L383.588 72.4298L384.162 74.2188L384.708 76.015L385.224 77.8147L385.71 79.6159L386.165 81.4156L386.587 83.2099L386.975 84.9977L387.33 86.7749L387.647 88.539L387.929 90.2883L388.171 92.0186L388.375 93.7293L388.537 95.4176L388.656 97.0795L388.732 98.7158L388.761 100.324L388.741 101.9L378.124 101.594L378.139 100.356L378.116 99.0604L378.054 97.7118L377.954 96.3143L377.816 94.8749L377.64 93.3962L377.427 91.8827L377.179 90.3399L376.896 88.7714L376.58 87.1817L376.23 85.5747L375.848 83.9529L375.437 82.3223L374.995 80.6859L374.525 79.0473L374.028 77.4109L373.504 75.7799L372.956 74.1573L372.384 72.5496L371.79 70.9579L371.175 69.3876L370.54 67.8417L369.887 66.3229L369.218 64.8377L368.532 63.3876L367.833 61.9775L367.123 60.6121L366.401 59.2933L365.671 58.0267L364.936 56.8155L364.196 55.6642L363.455 54.5774L363.456 54.577ZM305.703 14.1898L307.756 3.72412L310.442 4.29692L313.084 4.94146L315.681 5.65659L318.233 6.44004L320.74 7.2895L323.203 8.2046L325.62 9.1819L327.994 10.2203L330.322 11.3178L332.606 12.4721L334.846 13.6815L337.041 14.9442L339.191 16.2581L341.299 17.6208L343.363 19.0308L345.383 20.4867L347.361 21.9856L349.296 23.5262L351.189 25.1064L353.04 26.7241L354.849 28.3784L356.617 30.0662L358.345 31.7861L360.032 33.5373L361.68 35.3164L363.287 37.1226L364.857 38.9539L366.387 40.8081L367.88 42.6845L369.334 44.5803L370.751 46.4937L372.132 48.4247L363.455 54.5762L362.176 52.788L360.865 51.0181L359.523 49.268L358.149 47.5405L356.742 45.8358L355.302 44.156L353.83 42.5032L352.326 40.8784L350.789 39.2828L349.218 37.7194L347.614 36.188L345.977 34.6917L344.305 33.2305L342.6 31.8067L340.861 30.4219L339.087 29.0771L337.278 27.7739L335.435 26.5142L333.556 25.2988L331.641 24.1295L329.69 23.0072L327.702 21.9338L325.677 20.9103L323.615 19.9383L321.515 19.0194L319.376 18.1547L317.198 17.3457L314.981 16.5943L312.723 15.9009L310.425 15.2682L308.084 14.6969L305.701 14.189L305.703 14.1898ZM264.411 11.7879L262.706 1.25969L264.244 1.02042L265.764 0.807103L267.265 0.62126L268.749 0.460221L270.217 0.324368L271.67 0.212938L273.109 0.125549L274.535 0.0614391L275.95 0.0194621L277.354 0L278.748 0.00228966L280.133 0.0248046L281.51 0.0671632L282.882 0.129366L284.245 0.209885L285.607 0.30834L286.964 0.424349L288.319 0.556386L289.673 0.704069L291.027 0.867016L292.381 1.0437L293.739 1.23374L295.101 1.43676L296.468 1.65199L297.842 1.87828L299.223 2.11564L300.613 2.36254L302.015 2.61898L303.428 2.88382L304.855 3.15667L306.296 3.43715L307.756 3.72451L305.702 14.1901L304.265 13.9074L302.851 13.6322L301.459 13.3662L300.088 13.109L298.736 12.8618L297.402 12.6248L296.085 12.3989L294.785 12.1844L293.499 11.9821L292.225 11.7921L290.963 11.6154L289.711 11.4517L288.468 11.3025L287.232 11.1674L286.001 11.0476L284.775 10.943L283.553 10.8545L282.329 10.7824L281.107 10.7267L279.883 10.6889L278.653 10.6686L277.419 10.6671L276.178 10.6843L274.928 10.7209L273.667 10.7778L272.395 10.8553L271.108 10.9537L269.806 11.0743L268.486 11.217L267.148 11.3834L265.79 11.5731L264.409 11.7883L264.411 11.7879ZM221.99 27.8155L216.615 18.6153L218.142 17.7147L219.608 16.8496L221.018 16.0188L222.38 15.2197L223.7 14.4512L224.983 13.712L226.235 12.9999L227.464 12.3141L228.673 11.6532L229.871 11.0155L231.061 10.4011L232.25 9.80812L233.441 9.23685L234.64 8.68619L235.85 8.15537L237.078 7.64439L238.327 7.15136L239.602 6.67702L240.905 6.22023L242.241 5.77947L243.617 5.35398L245.034 4.94184L246.5 4.54268L248.018 4.1542L249.593 3.77602L251.231 3.40472L252.939 3.04028L254.721 2.6808L256.582 2.32438L258.53 1.96948L260.569 1.61497L262.707 1.25893L264.411 11.7871L262.343 12.1317L260.382 12.4725L258.523 12.8106L256.76 13.148L255.088 13.4853L253.502 13.8238L251.995 14.1646L250.563 14.5088L249.2 14.8572L247.899 15.2117L246.656 15.5731L245.462 15.9429L244.311 16.3222L243.197 16.7126L242.114 17.1159L241.054 17.5338L240.009 17.9692L238.973 18.4226L237.939 18.8977L236.901 19.3953L235.854 19.9181L234.788 20.4684L233.701 21.0477L232.584 21.6582L231.433 22.3009L230.242 22.9775L229.007 23.6888L227.723 24.4367L226.384 25.2221L224.985 26.046L223.522 26.9096L221.99 27.8132L221.99 27.8155ZM216.714 31.5728L210.451 22.9576L210.452 22.9572L210.631 22.8248L210.809 22.6939L210.983 22.5642L211.157 22.4329L211.328 22.3047L211.501 22.1742L211.671 22.0459L211.839 21.9181L212.013 21.7861L212.182 21.6575L212.355 21.5262L212.529 21.3953L212.701 21.2656L212.88 21.1308L213.059 20.9973L213.242 20.8614L213.422 20.729L213.607 20.5932L213.8 20.455L213.992 20.3176L214.189 20.1787L214.387 20.0406L214.592 19.8994L214.801 19.7586L215.009 19.6193L215.226 19.4762L215.447 19.3335L215.669 19.1923L215.898 19.0484L216.132 18.9045L216.373 18.7588L216.616 18.6145L221.991 27.8147L221.818 27.9174L221.652 28.0177L221.487 28.1185L221.328 28.2185L221.168 28.3204L221.015 28.4192L220.864 28.5184L220.711 28.6207L220.563 28.7207L220.417 28.821L220.268 28.9248L220.122 29.0275L219.975 29.1328L219.829 29.2377L219.68 29.3469L219.526 29.4595L219.377 29.5701L219.223 29.6846L219.07 29.7995L218.909 29.9216L218.747 30.0433L218.583 30.1677L218.413 30.2963L218.245 30.4246L218.068 30.5593L217.887 30.6959L217.705 30.834L217.516 30.9764L217.324 31.1195L217.126 31.2671L216.922 31.4175L216.715 31.5701L216.715 31.5698L216.714 31.5728ZM191.876 51.3096L196.391 41.6553L190.208 42.8906L190.792 42.2445L191.374 41.6L191.953 40.9554L192.532 40.3094L193.111 39.6633L193.689 39.0192L194.267 38.375L194.848 37.7297L195.43 37.0863L196.012 36.4448L196.599 35.803L197.189 35.1622L197.782 34.5238L198.378 33.8869L198.982 33.2504L199.59 32.6165L200.203 31.9857L200.822 31.3572L201.449 30.731L202.082 30.1082L202.724 29.4881L203.375 28.8706L204.034 28.2582L204.703 27.6487L205.382 27.0443L206.071 26.4444L206.771 25.8487L207.483 25.2583L208.206 24.6741L208.941 24.0952L209.69 23.5228L210.451 22.9565L216.713 31.5717L216.07 32.0502L215.437 32.5352L214.812 33.0275L214.195 33.5263L213.585 34.0319L212.983 34.5436L212.385 35.0642L211.794 35.5908L211.209 36.1235L210.628 36.6635L210.053 37.2092L209.48 37.7629L208.91 38.3231L208.343 38.8898L207.777 39.463L207.215 40.0423L206.653 40.6276L206.093 41.2188L205.532 41.8171L204.971 42.4216L204.41 43.0306L203.847 43.6458L203.282 44.2674L202.716 44.8933L202.149 45.5233L201.577 46.1606L201.001 46.8025L200.423 47.4478L199.84 48.0976L199.25 48.7532L198.657 49.4119L198.057 50.0736L191.874 51.3089L191.876 51.3096ZM198.059 50.0744L195.421 52.9815L191.876 51.3093L198.059 50.074V50.0744Z" fill="#5CC6D0"/>
<path fill-rule="evenodd" clip-rule="evenodd" d="M194.132 46.4823C191.603 45.2894 192.886 45.8263 191.246 43.9503L182.726 35.058C158.719 12.7629 123.37 2.21638 89.3714 8.74305C72.4176 11.9978 53.1326 19.9555 40.8402 30.6066C17.5796 50.762 8.84686 69.2914 5.4326 99.1047C4.72853 105.253 7.27081 125.364 8.78924 131.153C13.1071 147.611 21.127 165.789 31.6034 179.54C44.5811 196.574 62.358 211.935 79.5899 225.648C90.4429 234.284 100.469 243.322 111.408 251.624C113.941 253.546 116.44 255.766 119.057 257.997L142.915 278.395C154.939 289.478 160.038 293.966 171.673 306.81L190.65 329.518C192.345 332.001 194.963 335.262 197.046 337.248C202.129 331.646 215.557 310.141 226.06 299.737C228.012 297.803 234.589 290.889 236.179 288.526L235.082 287.49C231.126 285.174 223.486 279.155 220.62 276.935L202.219 297.649C200.148 300.068 198.466 302.962 196.443 305.378L172.895 279.929C146.019 251.689 95.0955 215.938 63.0785 185.654C47.1887 170.624 32.1441 147.659 28.2463 126.208C21.3709 88.3723 28.8508 60.8239 63.6146 37.7484L75.6704 31.4683C80.6542 29.4431 84.6394 28.5333 89.8728 27.3125C105.801 23.5976 117.333 25.374 133.546 28.5833C161.046 34.0258 178.717 56.3362 189.119 77.4522C190.455 80.1635 192.494 84.5436 194.462 86.4204C199.435 76.6588 203.942 66.4168 210.072 57.963C213.34 53.4562 216.144 50.4159 219.916 46.6456C225.771 40.7936 230.854 37.661 237.99 33.9212C244.213 30.66 252.363 27.2568 259.389 25.9452C286.546 20.8755 309.121 24.9275 331.401 40.4219C339.595 46.1205 346.261 54.6724 351.701 62.3393C368.057 85.3946 365.521 123.098 351.324 148.739C347.683 155.315 342.916 162.902 338.56 168.105C350.795 169.157 347.051 168.463 358.865 173.6C360.115 171.145 362.774 167.682 364.588 164.856C366.73 161.52 367.966 159.24 369.925 155.561C378.351 139.735 382.925 119.501 383.432 101.747C383.854 86.9806 376.656 64.1084 367.793 51.5012C353.789 31.5801 333.996 14.3538 306.729 8.95713C291.174 5.87869 279.24 3.96377 263.558 6.52399C240.566 10.2779 235.988 13.3834 219.302 23.2156C217.056 24.539 215.668 25.7357 213.582 27.2652C206.033 32.7993 200.468 39.5007 194.132 46.4827V46.4823Z" fill="#815AA4"/>
<path fill-rule="evenodd" clip-rule="evenodd" d="M194.132 46.4823C191.603 45.2894 192.886 45.8263 191.246 43.9503L182.726 35.058C158.719 12.7629 123.37 2.21638 89.3717 8.74305C72.4176 11.9978 53.1326 19.9555 40.8402 30.6066C17.5796 50.762 8.84686 69.2914 5.4326 99.1047C4.72853 105.253 7.27081 125.364 8.78924 131.153C13.1071 147.611 21.127 165.789 31.6034 179.54C44.5811 196.574 62.358 211.935 79.5899 225.648C90.4429 234.284 100.469 243.322 111.408 251.624C113.941 253.546 116.44 255.766 119.057 257.997L142.915 278.395C154.939 289.478 160.038 293.966 171.673 306.81L190.65 329.518C192.345 332.001 194.963 335.262 197.046 337.248C202.129 331.646 215.557 310.141 226.06 299.737C228.012 297.803 234.589 290.889 236.179 288.526L235.082 287.49C231.126 285.174 223.486 279.155 220.62 276.935L202.219 297.649C200.148 300.068 198.466 302.962 196.443 305.378L172.895 279.929C146.019 251.689 95.0955 215.938 63.0785 185.654C47.1887 170.624 32.1441 147.659 28.2463 126.208C21.3709 88.3723 28.8508 60.8239 63.6146 37.7484L75.6704 31.4683C80.6542 29.4431 84.6394 28.5333 89.8728 27.3125C105.801 23.5976 117.333 25.374 133.546 28.5833C161.046 34.0258 178.717 56.3362 189.119 77.4522C190.455 80.1635 192.494 84.5436 194.462 86.4204C199.435 76.6588 203.942 66.4168 210.072 57.963C213.34 53.4562 216.145 50.4159 219.916 46.6456C225.771 40.7936 230.854 37.661 237.99 33.9212C244.213 30.66 252.363 27.2568 259.389 25.9452C286.546 20.8755 309.122 24.9275 331.401 40.4219C339.595 46.1205 346.261 54.6724 351.701 62.3393C368.057 85.3946 365.521 123.098 351.324 148.739C347.683 155.315 342.916 162.902 338.56 168.105C350.795 169.157 347.051 168.463 358.865 173.6C360.115 171.145 362.774 167.682 364.588 164.856C366.73 161.52 367.966 159.24 369.925 155.561C378.351 139.735 382.925 119.501 383.433 101.747C383.854 86.9806 376.656 64.1084 367.793 51.5012C353.789 31.5801 333.996 14.3538 306.729 8.95713C291.174 5.87869 279.24 3.96377 263.558 6.52399C240.566 10.2779 235.988 13.3834 219.302 23.2156C217.056 24.539 215.668 25.7357 213.582 27.2652C206.033 32.7993 200.468 39.5007 194.132 46.4827V46.4823Z" fill="#A53692" stroke="#815AA4" stroke-width="4.00003" stroke-miterlimit="22.9256"/>
<path fill-rule="evenodd" clip-rule="evenodd" d="M236.686 266.8C236.044 265.801 236.701 266.625 235.932 265.912C234.124 264.234 231.127 263.234 229.412 259.453C227.749 255.785 228.178 250.625 230.021 247.227C231.606 244.303 234.54 241.744 238.972 241.399C246.434 240.819 245.735 244.447 248.811 245.888C250.159 240.12 247.686 232.364 249.11 226.104C252.366 211.788 247.014 213.502 240.819 204.488C239.428 202.463 237.978 199.583 238.271 196.297C239.036 187.708 248.56 193.063 255.119 191.457C258.343 190.669 265.266 184.239 266.828 182.071C273.494 172.818 267.719 174.498 259.039 174.535C247.883 174.584 251.009 169.2 243.758 168.867C238.107 168.608 229.973 170.543 227.556 174.39C224.602 179.091 226.302 196.193 215.993 205.442L205.609 216.108C204.24 217.547 202.149 220.1 200.834 221.875C195.371 229.251 191.54 235.134 193.507 245.619C195.545 256.485 204.617 266.103 214.992 266.746C221.828 267.169 229.701 266.712 236.686 266.801V266.8Z" stroke="#FFF212" stroke-width="6.52819" stroke-miterlimit="22.9256"/>
<path fill-rule="evenodd" clip-rule="evenodd" d="M236.686 266.8C236.044 265.801 236.701 266.625 235.932 265.912C234.124 264.234 231.127 263.234 229.412 259.453C227.749 255.785 228.178 250.625 230.021 247.227C231.606 244.303 234.54 241.744 238.972 241.399C246.434 240.819 245.735 244.447 248.811 245.888C250.159 240.12 247.686 232.364 249.11 226.104C252.366 211.788 247.014 213.502 240.819 204.488C239.428 202.463 237.978 199.583 238.271 196.297C239.036 187.708 248.56 193.063 255.119 191.457C258.343 190.669 265.266 184.239 266.828 182.071C273.494 172.818 267.719 174.498 259.039 174.535C247.883 174.584 251.009 169.2 243.758 168.867C238.107 168.608 229.973 170.543 227.556 174.39C224.602 179.091 226.302 196.193 215.993 205.442L205.609 216.108C204.24 217.547 202.149 220.1 200.834 221.875C195.371 229.251 191.54 235.134 193.507 245.619C195.545 256.485 204.617 266.103 214.992 266.746C221.828 267.169 229.701 266.712 236.686 266.801V266.8Z" fill="#58118B"/>
<path d="M242.315 247.045L248.015 250.181L247.728 250.665L247.408 251.121L247.067 251.538L246.705 251.919L246.33 252.261L245.951 252.563L245.57 252.831L245.195 253.063L244.83 253.265L244.478 253.44L244.143 253.593L243.827 253.725L243.533 253.841L243.261 253.944L243.014 254.036L242.793 254.117L242.603 254.19L242.445 254.253L242.318 254.307L242.228 254.349L242.173 254.378L242.154 254.389L242.171 254.377L242.213 254.341L242.272 254.281L242.342 254.196L242.408 254.097L242.46 253.996L242.494 253.91L242.51 253.854L242.513 253.838L242.51 253.876L236.022 253.488L236.078 252.929L236.182 252.366L236.34 251.812L236.553 251.274L236.821 250.762L237.136 250.288L237.486 249.865L237.854 249.499L238.232 249.184L238.609 248.918L238.971 248.698L239.319 248.512L239.65 248.355L239.959 248.221L240.25 248.104L240.519 248.002L240.767 247.91L240.994 247.826L241.201 247.748L241.389 247.674L241.555 247.605L241.698 247.54L241.82 247.48L241.922 247.424L242.005 247.372L242.07 247.328L242.123 247.285L242.165 247.248L242.2 247.211L242.237 247.167L242.273 247.116L242.315 247.045V247.045ZM232.487 253.551L226.104 254.78L225.884 253.184L225.842 251.634L225.977 250.142L226.284 248.72L226.753 247.386L227.368 246.153L228.108 245.032L228.953 244.026L229.881 243.138L230.875 242.363L231.92 241.696L233.002 241.13L234.111 240.659L235.236 240.28L236.37 239.986L237.508 239.776L238.641 239.646L239.764 239.597L240.873 239.628L241.962 239.743L243.027 239.945L244.067 240.244L245.077 240.654L246.048 241.197L246.96 241.896L247.78 242.781L248.443 243.86L248.877 245.095L249.034 246.413L248.917 247.726L248.563 248.986L248.015 250.181L242.315 247.045L242.479 246.691L242.532 246.507L242.536 246.483L242.546 246.571L242.585 246.688L242.626 246.76L242.615 246.752L242.508 246.673L242.292 246.554L241.965 246.423L241.537 246.3L241.026 246.204L240.448 246.143L239.819 246.125L239.153 246.155L238.466 246.233L237.771 246.362L237.082 246.539L236.41 246.765L235.768 247.037L235.167 247.351L234.615 247.703L234.118 248.089L233.681 248.505L233.307 248.949L232.991 249.424L232.735 249.935L232.538 250.496L232.402 251.121L232.338 251.828L232.36 252.633L232.487 253.55L232.487 253.551ZM241.47 262.395L239.798 268.704L239.187 268.527L238.581 268.327L237.985 268.105L237.395 267.861L236.813 267.597L236.241 267.313L235.678 267.01L235.123 266.689L234.579 266.351L234.045 265.996L233.521 265.624L233.008 265.236L232.508 264.834L232.018 264.417L231.543 263.985L231.079 263.54L230.63 263.081L230.197 262.61L229.777 262.125L229.373 261.627L228.987 261.119L228.618 260.598L228.267 260.066L227.935 259.523L227.623 258.967L227.333 258.401L227.064 257.824L226.819 257.234L226.599 256.636L226.406 256.028L226.24 255.408L226.103 254.78L232.487 253.551L232.555 253.864L232.64 254.184L232.745 254.512L232.867 254.845L233.007 255.182L233.166 255.522L233.342 255.866L233.536 256.211L233.747 256.557L233.975 256.902L234.218 257.244L234.476 257.584L234.748 257.92L235.034 258.25L235.334 258.576L235.645 258.894L235.967 259.203L236.3 259.505L236.642 259.797L236.992 260.078L237.349 260.349L237.713 260.606L238.083 260.852L238.457 261.085L238.834 261.303L239.213 261.507L239.593 261.695L239.972 261.868L240.351 262.024L240.728 262.165L241.1 262.288L241.469 262.394L241.47 262.395ZM262.963 262.838V269.367H262.963L262.469 269.368L261.928 269.373L261.345 269.381L260.725 269.39L260.069 269.402L259.381 269.414L258.666 269.428L257.925 269.442L257.162 269.457L256.379 269.471L255.581 269.484L254.77 269.497L253.947 269.507L253.117 269.515L252.283 269.521L251.447 269.524L250.612 269.523L249.782 269.518L248.957 269.509L248.141 269.495L247.337 269.476L246.547 269.451L245.775 269.42L245.02 269.382L244.286 269.336L243.575 269.282L242.887 269.219L242.223 269.146L241.585 269.06L240.97 268.961L240.377 268.844L239.799 268.706L241.47 262.397L241.749 262.463L242.105 262.533L242.527 262.601L243.007 262.664L243.538 262.723L244.115 262.776L244.732 262.823L245.383 262.864L246.067 262.898L246.78 262.927L247.516 262.95L248.272 262.968L249.046 262.981L249.835 262.99L250.634 262.994L251.44 262.995L252.251 262.992L253.063 262.987L253.875 262.979L254.68 262.968L255.48 262.956L256.269 262.944L257.042 262.929L257.802 262.915L258.542 262.901L259.26 262.887L259.953 262.874L260.619 262.862L261.255 262.852L261.86 262.845L262.43 262.84L262.963 262.838H262.963L262.963 262.838ZM281.395 260.08L284.136 265.999L283.449 266.312L282.769 266.607L282.096 266.883L281.429 267.14L280.768 267.38L280.111 267.603L279.458 267.81L278.809 267.999L278.164 268.174L277.521 268.333L276.881 268.477L276.243 268.608L275.607 268.725L274.972 268.829L274.338 268.921L273.703 269.002L273.068 269.073L272.433 269.133L271.796 269.184L271.156 269.228L270.512 269.264L269.865 269.293L269.213 269.315L268.554 269.333L267.89 269.346L267.218 269.356L266.537 269.362L265.845 269.366L265.144 269.367L264.431 269.368H263.703L262.962 269.367V262.839L263.705 262.839H264.429L265.135 262.839L265.822 262.837L266.492 262.834L267.144 262.828L267.783 262.819L268.405 262.807L269.013 262.791L269.607 262.77L270.188 262.744L270.757 262.712L271.316 262.674L271.865 262.63L272.405 262.578L272.937 262.519L273.463 262.452L273.982 262.377L274.498 262.292L275.01 262.198L275.521 262.093L276.031 261.978L276.542 261.852L277.056 261.713L277.573 261.562L278.095 261.397L278.622 261.218L279.157 261.024L279.701 260.813L280.255 260.587L280.819 260.343L281.395 260.08L281.395 260.08ZM291.247 250.228L297.102 253.063L296.845 253.584L296.576 254.099L296.296 254.608L296.004 255.112L295.702 255.608L295.389 256.101L295.065 256.586L294.731 257.063L294.387 257.535L294.033 258L293.67 258.457L293.297 258.906L292.914 259.349L292.523 259.784L292.123 260.21L291.714 260.627L291.297 261.037L290.872 261.438L290.438 261.83L289.995 262.213L289.546 262.587L289.089 262.95L288.625 263.304L288.153 263.648L287.674 263.982L287.188 264.304L286.696 264.615L286.197 264.915L285.69 265.205L285.178 265.482L284.66 265.747L284.136 266L281.395 260.08L281.779 259.895L282.162 259.699L282.543 259.493L282.918 259.279L283.293 259.053L283.664 258.818L284.031 258.575L284.394 258.322L284.753 258.061L285.107 257.791L285.457 257.513L285.802 257.226L286.14 256.933L286.474 256.631L286.802 256.322L287.124 256.006L287.44 255.683L287.749 255.354L288.05 255.019L288.345 254.678L288.633 254.33L288.913 253.978L289.185 253.622L289.449 253.26L289.705 252.892L289.953 252.521L290.191 252.148L290.421 251.769L290.642 251.388L290.853 251.004L291.055 250.617L291.247 250.228H291.247ZM284.697 219.997L289.591 215.702L290.263 216.491L290.933 217.313L291.596 218.165L292.252 219.048L292.897 219.96L293.531 220.902L294.15 221.873L294.751 222.87L295.334 223.896L295.894 224.948L296.43 226.026L296.939 227.129L297.417 228.256L297.865 229.409L298.276 230.584L298.65 231.783L298.983 233.002L299.272 234.243L299.515 235.503L299.707 236.783L299.847 238.081L299.932 239.395L299.958 240.723L299.922 242.067L299.823 243.42L299.655 244.784L299.418 246.157L299.108 247.535L298.724 248.917L298.263 250.3L297.723 251.683L297.103 253.063L291.248 250.228L291.735 249.145L292.155 248.069L292.511 247L292.807 245.936L293.045 244.878L293.226 243.826L293.354 242.779L293.432 241.737L293.459 240.7L293.438 239.669L293.373 238.644L293.262 237.624L293.109 236.611L292.916 235.606L292.684 234.608L292.414 233.621L292.11 232.643L291.771 231.677L291.401 230.722L291.001 229.781L290.574 228.855L290.122 227.946L289.646 227.053L289.15 226.179L288.634 225.324L288.102 224.49L287.556 223.679L286.998 222.891L286.431 222.127L285.857 221.389L285.278 220.678L284.698 219.996L284.697 219.997ZM279.183 215.408L282.692 209.913L282.692 209.913L282.92 210.061L283.146 210.209L283.37 210.359L283.597 210.511L283.824 210.667L284.049 210.822L284.274 210.98L284.5 211.142L284.721 211.302L284.945 211.466L285.169 211.634L285.391 211.803L285.612 211.974L285.83 212.145L286.051 212.322L286.27 212.5L286.488 212.681L286.704 212.863L286.92 213.048L287.135 213.236L287.348 213.425L287.559 213.618L287.77 213.813L287.979 214.012L288.187 214.214L288.393 214.417L288.597 214.624L288.8 214.835L289 215.046L289.199 215.261L289.396 215.48L289.591 215.701L284.696 219.996L284.553 219.834L284.408 219.673L284.261 219.513L284.11 219.353L283.959 219.197L283.805 219.041L283.649 218.886L283.492 218.735L283.333 218.583L283.17 218.432L283.007 218.284L282.84 218.135L282.673 217.989L282.504 217.844L282.332 217.699L282.159 217.556L281.986 217.415L281.81 217.276L281.629 217.134L281.45 216.996L281.269 216.858L281.088 216.722L280.904 216.586L280.716 216.45L280.53 216.317L280.342 216.185L280.15 216.052L279.961 215.923L279.769 215.793L279.573 215.663L279.378 215.535L279.183 215.408L279.183 215.408V215.408ZM272.612 206.133L279.097 206.567L279.086 206.815L279.086 207.029L279.094 207.211L279.109 207.359L279.127 207.478L279.148 207.572L279.167 207.641L279.185 207.691L279.202 207.73L279.217 207.758L279.231 207.782L279.249 207.807L279.275 207.839L279.308 207.876L279.351 207.919L279.412 207.973L279.489 208.036L279.585 208.108L279.698 208.186L279.829 208.271L279.982 208.365L280.155 208.467L280.342 208.573L280.546 208.686L280.77 208.807L281.009 208.937L281.259 209.073L281.524 209.218L281.802 209.374L282.091 209.542L282.389 209.721L282.693 209.913L279.184 215.408L278.994 215.288L278.796 215.17L278.591 215.051L278.377 214.931L278.154 214.808L277.921 214.681L277.682 214.552L277.436 214.418L277.178 214.275L276.912 214.125L276.642 213.966L276.364 213.794L276.076 213.607L275.783 213.402L275.489 213.181L275.192 212.938L274.896 212.672L274.6 212.377L274.314 212.056L274.04 211.711L273.781 211.337L273.541 210.937L273.325 210.515L273.136 210.076L272.974 209.618L272.841 209.147L272.738 208.667L272.661 208.175L272.612 207.676L272.589 207.171L272.59 206.656L272.614 206.133L272.612 206.133ZM270.689 188.254L276.575 185.485L276.855 186.11L277.116 186.742L277.358 187.381L277.583 188.026L277.79 188.677L277.981 189.33L278.156 189.989L278.317 190.652L278.463 191.317L278.595 191.986L278.714 192.657L278.82 193.329L278.914 194.004L278.997 194.679L279.069 195.356L279.13 196.032L279.181 196.709L279.224 197.385L279.257 198.061L279.282 198.734L279.3 199.406L279.309 200.077L279.312 200.744L279.309 201.408L279.299 202.07L279.283 202.728L279.262 203.381L279.238 204.028L279.208 204.672L279.175 205.31L279.138 205.942L279.098 206.567L272.613 206.133L272.651 205.542L272.685 204.948L272.716 204.35L272.743 203.752L272.767 203.149L272.786 202.546L272.8 201.944L272.809 201.341L272.813 200.739L272.81 200.136L272.801 199.536L272.786 198.938L272.764 198.343L272.735 197.751L272.698 197.162L272.654 196.577L272.601 195.998L272.54 195.424L272.47 194.856L272.392 194.294L272.304 193.738L272.208 193.192L272.101 192.653L271.985 192.123L271.859 191.603L271.723 191.091L271.576 190.59L271.42 190.099L271.254 189.621L271.076 189.153L270.888 188.697L270.689 188.253V188.254ZM264.978 190.532L260.009 186.324L260.393 185.856L260.768 185.378L261.135 184.894L261.496 184.405L261.852 183.914L262.204 183.423L262.554 182.934L262.904 182.45L263.256 181.972L263.614 181.502L263.984 181.04L264.371 180.586L264.782 180.143L265.231 179.709L265.732 179.291L266.302 178.897L266.963 178.542L267.728 178.261L268.587 178.097L269.501 178.092L270.402 178.256L271.234 178.567L271.969 178.983L272.619 179.475L273.196 180.022L273.722 180.617L274.217 181.265L274.693 181.97L275.16 182.738L275.626 183.575L276.097 184.489L276.575 185.485L270.689 188.254L270.28 187.404L269.899 186.662L269.546 186.027L269.224 185.498L268.94 185.077L268.7 184.763L268.516 184.553L268.404 184.446L268.383 184.428L268.465 184.474L268.659 184.545L268.933 184.595L269.231 184.594L269.481 184.548L269.642 184.49L269.705 184.459L269.674 184.482L269.576 184.566L269.421 184.716L269.223 184.931L268.991 185.203L268.733 185.527L268.45 185.899L268.146 186.311L267.822 186.759L267.48 187.238L267.117 187.744L266.734 188.273L266.33 188.82L265.903 189.382L265.453 189.954L264.979 190.532L264.978 190.532ZM244.171 196.207L244.511 189.687L245.244 189.724L245.962 189.756L246.667 189.783L247.356 189.805L248.028 189.82L248.685 189.829L249.326 189.83L249.95 189.822L250.558 189.806L251.149 189.781L251.722 189.746L252.278 189.701L252.817 189.647L253.337 189.582L253.839 189.506L254.323 189.419L254.79 189.321L255.238 189.212L255.669 189.092L256.082 188.96L256.478 188.817L256.857 188.663L257.222 188.496L257.572 188.317L257.909 188.126L258.236 187.92L258.551 187.699L258.856 187.464L259.154 187.209L259.445 186.935L259.73 186.64L260.009 186.323L264.978 190.531L264.499 191.076L264 191.592L263.482 192.08L262.946 192.537L262.392 192.965L261.824 193.363L261.242 193.73L260.647 194.069L260.04 194.379L259.424 194.66L258.797 194.916L258.163 195.145L257.522 195.349L256.874 195.53L256.22 195.689L255.56 195.828L254.895 195.947L254.223 196.049L253.545 196.133L252.863 196.203L252.175 196.258L251.48 196.3L250.781 196.33L250.073 196.349L249.361 196.357L248.64 196.356L247.914 196.347L247.18 196.33L246.439 196.307L245.692 196.278L244.935 196.244L244.171 196.206L244.171 196.207ZM243.204 197.417L236.904 199.023V199.022L236.789 198.555L236.684 198.102L236.589 197.659L236.504 197.224L236.432 196.799L236.372 196.373L236.327 195.946L236.3 195.517L236.293 195.078L236.313 194.623L236.365 194.152L236.459 193.667L236.604 193.164L236.811 192.653L237.085 192.149L237.422 191.675L237.818 191.242L238.253 190.869L238.708 190.561L239.173 190.313L239.63 190.122L240.081 189.974L240.524 189.864L240.955 189.782L241.383 189.723L241.809 189.683L242.236 189.658L242.671 189.645L243.113 189.643L243.565 189.65L244.03 189.665L244.511 189.687L244.172 196.207L243.773 196.188L243.407 196.176L243.074 196.171L242.777 196.172L242.521 196.18L242.3 196.193L242.121 196.21L241.988 196.228L241.899 196.244L241.864 196.253L241.877 196.249L241.936 196.223L242.041 196.167L242.175 196.076L242.324 195.948L242.471 195.787L242.594 195.613L242.689 195.44L242.749 195.291L242.781 195.182L242.793 195.124L242.794 195.114L242.793 195.155L242.795 195.248L242.804 195.388L242.823 195.569L242.855 195.788L242.899 196.049L242.956 196.343L243.026 196.669L243.11 197.028L243.206 197.417V197.417H243.204ZM252.183 209.344L247.144 213.466L246.769 213.013L246.399 212.583L246.035 212.172L245.676 211.782L245.319 211.405L244.965 211.041L244.614 210.687L244.265 210.342L243.916 210.003L243.568 209.667L243.22 209.331L242.87 208.993L242.523 208.652L242.173 208.304L241.824 207.948L241.475 207.58L241.127 207.199L240.782 206.803L240.441 206.39L240.104 205.959L239.774 205.508L239.452 205.037L239.139 204.544L238.837 204.027L238.547 203.489L238.27 202.927L238.007 202.341L237.759 201.73L237.524 201.095L237.303 200.432L237.097 199.742L236.905 199.023L243.204 197.418L243.349 197.959L243.499 198.461L243.654 198.927L243.814 199.36L243.979 199.763L244.147 200.139L244.321 200.49L244.499 200.821L244.682 201.135L244.873 201.435L245.072 201.726L245.279 202.009L245.496 202.287L245.725 202.564L245.967 202.841L246.223 203.121L246.493 203.406L246.778 203.697L247.079 203.996L247.395 204.306L247.725 204.626L248.072 204.96L248.432 205.308L248.806 205.672L249.193 206.054L249.591 206.455L250.001 206.876L250.421 207.32L250.85 207.788L251.288 208.28L251.732 208.799L252.184 209.345L252.183 209.344ZM254.397 220.9L247.944 220.115L248 219.673L248.055 219.253L248.109 218.857L248.162 218.483L248.212 218.134L248.259 217.806L248.3 217.503L248.338 217.222L248.37 216.964L248.395 216.731L248.415 216.519L248.429 216.328L248.437 216.163L248.439 216.018L248.437 215.887L248.431 215.781L248.421 215.686L248.409 215.599L248.394 215.52L248.374 215.438L248.35 215.356L248.32 215.269L248.279 215.168L248.227 215.052L248.16 214.92L248.077 214.77L247.976 214.603L247.855 214.416L247.712 214.208L247.546 213.981L247.358 213.734L247.145 213.466L252.185 209.344L252.474 209.708L252.749 210.067L253.007 210.422L253.251 210.776L253.48 211.132L253.696 211.49L253.897 211.851L254.081 212.217L254.251 212.59L254.402 212.968L254.537 213.354L254.651 213.742L254.744 214.127L254.819 214.516L254.874 214.899L254.912 215.278L254.932 215.653L254.939 216.013L254.933 216.368L254.917 216.717L254.893 217.055L254.862 217.391L254.826 217.724L254.785 218.054L254.741 218.384L254.695 218.719L254.647 219.057L254.597 219.403L254.547 219.758L254.497 220.125L254.447 220.504L254.397 220.9H254.397ZM253.554 242.695L247.056 242.555L247.07 241.862L247.082 241.17L247.093 240.479L247.102 239.788L247.111 239.098L247.118 238.408L247.126 237.717L247.132 237.027L247.139 236.336L247.147 235.645L247.155 234.954L247.164 234.261L247.174 233.569L247.185 232.875L247.198 232.181L247.213 231.485L247.23 230.787L247.25 230.09L247.272 229.39L247.297 228.689L247.326 227.986L247.358 227.281L247.395 226.575L247.435 225.867L247.48 225.156L247.53 224.444L247.585 223.729L247.645 223.011L247.711 222.291L247.783 221.57L247.861 220.845L247.946 220.117L254.398 220.903L254.32 221.574L254.248 222.245L254.181 222.915L254.12 223.585L254.064 224.253L254.012 224.922L253.965 225.592L253.923 226.261L253.884 226.93L253.85 227.601L253.819 228.27L253.792 228.941L253.767 229.613L253.746 230.286L253.727 230.96L253.71 231.634L253.696 232.311L253.683 232.989L253.672 233.668L253.662 234.35L253.654 235.032L253.646 235.718L253.638 236.405L253.632 237.094L253.625 237.786L253.617 238.479L253.61 239.175L253.601 239.874L253.592 240.576L253.581 241.28L253.568 241.988L253.554 242.698V242.695ZM248.372 252.92L244.98 247.351H244.98L245.26 247.177L245.516 247.015L245.746 246.865L245.95 246.726L246.127 246.601L246.28 246.487L246.407 246.387L246.509 246.3L246.589 246.227L246.648 246.169L246.69 246.123L246.719 246.088L246.736 246.066L246.746 246.051L246.755 246.034L246.768 246.01L246.781 245.979L246.797 245.935L246.817 245.872L246.839 245.784L246.864 245.668L246.889 245.528L246.914 245.359L246.937 245.162L246.959 244.934L246.979 244.679L246.996 244.396L247.011 244.083L247.025 243.743L247.037 243.375L247.047 242.979L247.057 242.555L253.554 242.695L253.545 243.138L253.534 243.564L253.52 243.975L253.504 244.37L253.485 244.753L253.463 245.13L253.434 245.499L253.4 245.861L253.356 246.222L253.303 246.582L253.239 246.943L253.16 247.302L253.065 247.666L252.951 248.034L252.817 248.4L252.661 248.762L252.486 249.114L252.288 249.462L252.069 249.798L251.834 250.117L251.587 250.416L251.329 250.699L251.061 250.965L250.789 251.215L250.508 251.451L250.225 251.676L249.935 251.892L249.639 252.102L249.337 252.307L249.026 252.51L248.705 252.714L248.373 252.921H248.373L248.372 252.92ZM236.022 253.489L242.51 253.877L240.323 250.596L240.493 250.654L240.625 250.695L240.715 250.72L240.763 250.733L240.764 250.733L240.721 250.727L240.634 250.722L240.506 250.724L240.36 250.738L240.215 250.766L240.082 250.802L239.98 250.84L239.915 250.869L239.895 250.879L239.917 250.865L239.975 250.828L240.073 250.76L240.203 250.666L240.359 250.55L240.545 250.409L240.76 250.246L240.999 250.066L241.266 249.865L241.559 249.648L241.88 249.414L242.229 249.163L242.607 248.898L243.017 248.617L243.457 248.323L243.93 248.013L244.438 247.689L244.981 247.351L248.373 252.92L247.89 253.221L247.444 253.505L247.032 253.774L246.65 254.03L246.3 254.271L245.975 254.498L245.677 254.712L245.4 254.915L245.143 255.105L244.902 255.286L244.673 255.46L244.456 255.624L244.244 255.784L244.03 255.943L243.816 256.096L243.593 256.252L243.347 256.411L243.081 256.57L242.785 256.727L242.45 256.878L242.084 257.014L241.688 257.124L241.276 257.202L240.858 257.243L240.448 257.248L240.065 257.223L239.709 257.175L239.377 257.111L239.068 257.037L238.773 256.954L238.489 256.865L238.208 256.77L236.021 253.49L236.022 253.489ZM238.209 256.77L235.876 255.964L236.022 253.489L238.209 256.77Z" fill="#FFF212"/>
<path fill-rule="evenodd" clip-rule="evenodd" d="M239.266 253.683C239.463 250.351 243.476 251.712 245.165 248.613C249.819 240.075 226.658 240.345 229.295 254.165C230.254 259.189 235.402 264.151 240.634 265.55C244.941 266.701 257.708 266.103 262.963 266.103C270.97 266.103 275.975 266.211 282.765 263.039C287.634 260.765 291.836 256.518 294.174 251.645C300.48 238.503 293.83 225.536 287.144 217.849C285.352 215.789 283.196 214.116 280.937 212.661C278.297 210.959 275.574 210.586 275.854 206.35C276.282 199.89 276.265 192.518 273.631 186.87C268.802 176.512 267.162 182.865 262.493 188.428C258.512 193.17 252.386 193.37 244.34 192.947C239.518 192.694 238.869 193.532 240.053 198.22C241.797 205.126 245.224 205.932 249.662 211.405C252.451 214.845 251.721 215.93 251.169 220.508C250.268 227.978 250.465 235.131 250.304 242.625C250.202 247.374 250.04 248.068 246.675 250.136C241.008 253.619 241.766 254.547 239.265 253.683H239.266Z" fill="#51A8B1"/>
<path fill-rule="evenodd" clip-rule="evenodd" d="M269.137 119.241C261.667 122.108 259.534 123.145 255.461 128.103C242.283 144.143 252.188 171.312 272.678 167.362C291.141 163.803 298.574 137.474 285.826 124.535C283.26 121.931 275.049 116.97 269.137 119.24V119.241Z" stroke="#FFF212" stroke-width="6.52819" stroke-miterlimit="22.9256"/>
<path fill-rule="evenodd" clip-rule="evenodd" d="M269.137 119.241C261.667 122.108 259.534 123.145 255.461 128.103C242.283 144.143 252.188 171.312 272.678 167.362C291.141 163.803 298.574 137.474 285.826 124.535C283.26 121.931 275.049 116.97 269.137 119.24V119.241Z" fill="#58118B"/>
<path fill-rule="evenodd" clip-rule="evenodd" d="M215.005 119.241C208.426 121.762 205.022 123.585 201.928 129.146C192.313 146.433 206.821 171.059 225.78 167.375C237.542 165.089 244.113 151.849 240.777 138.447C239.162 131.96 235.749 127.739 232.011 124.26C229.442 121.87 220.334 117.199 215.005 119.241V119.241Z" stroke="#FFF212" stroke-width="6.52819" stroke-miterlimit="22.9256"/>
<path fill-rule="evenodd" clip-rule="evenodd" d="M215.005 119.241C208.426 121.762 205.022 123.585 201.928 129.146C192.313 146.433 206.821 171.059 225.78 167.375C237.542 165.089 244.113 151.849 240.777 138.447C239.162 131.96 235.749 127.739 232.011 124.26C229.442 121.87 220.334 117.199 215.005 119.241V119.241Z" fill="#58118B"/>
<path fill-rule="evenodd" clip-rule="evenodd" d="M306.604 160.829C295.277 163.122 286.576 173.054 286.377 186.247C286.177 199.487 295.123 211.092 309.063 208.902C319.935 207.192 328.922 195.806 329.102 183.395C329.285 170.772 319.977 158.123 306.605 160.829H306.604Z" stroke="#FFF212" stroke-width="6.52819" stroke-miterlimit="22.9256"/>
<path fill-rule="evenodd" clip-rule="evenodd" d="M306.604 160.829C295.277 163.122 286.576 173.054 286.377 186.247C286.177 199.487 295.123 211.092 309.063 208.902C319.935 207.192 328.922 195.806 329.102 183.395C329.285 170.772 319.977 158.123 306.605 160.829H306.604Z" fill="#58118B"/>
<path fill-rule="evenodd" clip-rule="evenodd" d="M178.433 160.959C164.56 164.059 160.005 177.288 162.769 189.227C165.224 199.831 175.068 211.135 188.422 208.898C199.841 206.985 207.547 193.975 203.923 180.058C201.308 170.015 191.309 158.082 178.433 160.959L178.433 160.959Z" stroke="#FFF212" stroke-width="6.52819" stroke-miterlimit="22.9256"/>
<path fill-rule="evenodd" clip-rule="evenodd" d="M178.433 160.959C164.56 164.059 160.005 177.288 162.769 189.227C165.224 199.831 175.068 211.135 188.422 208.898C199.841 206.985 207.547 193.975 203.923 180.058C201.308 170.015 191.309 158.082 178.433 160.959L178.433 160.959Z" fill="#58118B"/>
<path fill-rule="evenodd" clip-rule="evenodd" d="M194.132 46.4823C191.603 45.2894 192.886 45.8263 191.246 43.9503L182.726 35.058C158.719 12.7629 123.37 2.21638 89.3714 8.74305C72.4176 11.9978 53.1326 19.9555 40.8402 30.6066C17.5796 50.762 8.84686 69.2914 5.4326 99.1047C4.72853 105.253 7.27081 125.364 8.78924 131.153C13.1071 147.611 21.127 165.789 31.6034 179.54C44.5811 196.574 62.358 211.935 79.5899 225.648C90.4429 234.284 100.469 243.322 111.408 251.624C113.941 253.546 116.44 255.766 119.057 257.997L142.915 278.395C154.939 289.478 160.038 293.966 171.673 306.81L190.65 329.518C192.345 332.001 194.963 335.262 197.046 337.248C202.129 331.646 215.557 310.141 226.06 299.737C228.012 297.803 234.589 290.889 236.179 288.526L235.082 287.49C231.126 285.174 223.486 279.155 220.62 276.935L202.219 297.649C200.148 300.068 198.466 302.962 196.443 305.378L172.895 279.929C146.019 251.689 95.0955 215.938 63.0785 185.654C47.1887 170.624 32.1441 147.659 28.2463 126.208C21.3709 88.3723 28.8508 60.8239 63.6146 37.7484L75.6704 31.4683C80.6542 29.4431 84.6394 28.5333 89.8728 27.3125C105.801 23.5976 117.333 25.374 133.546 28.5833C161.046 34.0258 178.717 56.3362 189.119 77.4522C190.455 80.1635 192.494 84.5436 194.462 86.4204C199.435 76.6588 203.942 66.4168 210.072 57.963C213.34 53.4562 216.144 50.4159 219.916 46.6456C225.771 40.7936 230.854 37.661 237.99 33.9212C244.213 30.66 252.363 27.2568 259.389 25.9452C286.546 20.8755 309.121 24.9275 331.401 40.4219C339.595 46.1205 346.261 54.6724 351.701 62.3393C368.057 85.3946 365.521 123.098 351.324 148.739C347.683 155.315 342.916 162.902 338.56 168.105C350.795 169.157 347.051 168.463 358.865 173.6C360.115 171.145 362.774 167.682 364.588 164.856C366.73 161.52 367.966 159.24 369.925 155.561C378.351 139.735 382.925 119.501 383.432 101.747C383.854 86.9806 376.656 64.1084 367.793 51.5012C353.789 31.5801 333.996 14.3538 306.729 8.95713C291.174 5.87869 279.24 3.96377 263.558 6.52399C240.566 10.2779 235.988 13.3834 219.302 23.2156C217.056 24.539 215.668 25.7357 213.582 27.2652C206.033 32.7993 200.468 39.5004 194.132 46.4823Z" fill="#5CC6D0" stroke="#A53692" stroke-width="6.66671" stroke-miterlimit="22.9256"/>
</svg>
