<svg width="12" height="10" viewBox="0 0 12 10" fill="none" xmlns="http://www.w3.org/2000/svg">
<g clip-path="url(#clip0_9_20)">
<path d="M4.34678 4.55923C5.17204 4.55923 5.84356 3.68714 5.84356 2.61519C5.84356 1.54324 5.17204 0.671143 4.34678 0.671143C3.52151 0.671143 2.84999 1.54324 2.84999 2.61519C2.84999 3.68714 3.52135 4.55923 4.34678 4.55923ZM4.34678 1.14399C4.89321 1.14399 5.35495 1.8178 5.35495 2.61519C5.35495 3.41257 4.89337 4.08638 4.34678 4.08638C3.80018 4.08638 3.33861 3.41257 3.33861 2.61519C3.33861 1.8178 3.80018 1.14399 4.34678 1.14399Z" fill="black"/>
<path d="M8.78631 6.44999C8.75552 6.40964 8.72604 6.3715 8.71041 6.33856C8.37587 5.64536 7.4581 4.82796 5.97206 4.80763L5.9149 4.80731C4.4515 4.80731 3.54089 5.58153 3.17655 6.30625C3.16401 6.33084 3.13632 6.36315 3.107 6.39704C3.07248 6.43707 3.03811 6.47774 3.00863 6.52203C2.7008 6.98558 2.54396 7.50713 2.56709 7.9907C2.59152 8.50453 2.81335 8.91701 3.1917 9.15218C3.34431 9.24738 3.50929 9.29514 3.6821 9.29514C4.03895 9.29514 4.36551 9.10079 4.74385 8.87524C4.98425 8.73229 5.23279 8.58397 5.50902 8.47316C5.54013 8.46323 5.66668 8.44826 5.87401 8.44826C6.12076 8.44826 6.29748 8.46938 6.33543 8.48231C6.60465 8.59721 6.8413 8.74836 7.07046 8.894C7.42129 9.1175 7.75257 9.32887 8.11202 9.32887C8.26626 9.32887 8.4161 9.28978 8.55698 9.21191C9.33518 8.78398 9.48339 7.61021 8.88761 6.595C8.85764 6.54425 8.82181 6.49681 8.78631 6.44999ZM8.31545 8.80101C8.24672 8.83852 8.18222 8.85617 8.11186 8.85617C7.89882 8.85617 7.63953 8.69083 7.33887 8.49933C7.10467 8.35007 6.83951 8.18094 6.53283 8.04981C6.38201 7.98518 6.05496 7.97541 5.87385 7.97541C5.60854 7.97541 5.42433 7.99559 5.32628 8.03452C5.00982 8.16187 4.73245 8.32674 4.48766 8.47253C4.17267 8.65978 3.90067 8.82229 3.6821 8.82229C3.60229 8.82229 3.53047 8.80069 3.45587 8.7542C3.21434 8.60399 3.07215 8.32485 3.05505 7.96863C3.03664 7.58247 3.16613 7.15927 3.41955 6.77752C3.43796 6.74962 3.46027 6.72488 3.48193 6.69997C3.52656 6.64828 3.57737 6.58949 3.61597 6.51273C3.91566 5.91678 4.67692 5.28016 5.9149 5.28016L5.96506 5.28048C7.22503 5.29766 7.99296 5.96911 8.26756 6.53858C8.30421 6.61407 8.35177 6.67649 8.39346 6.73134C8.41724 6.76271 8.44249 6.79439 8.46285 6.82891C8.9254 7.61699 8.85944 8.50169 8.31545 8.80101Z" fill="black"/>
<path d="M7.52911 4.55923C8.35454 4.55923 9.02605 3.68714 9.02605 2.61519C9.02605 1.54324 8.3547 0.671143 7.52911 0.671143C6.704 0.671143 6.03249 1.54324 6.03249 2.61519C6.03249 3.68714 6.70384 4.55923 7.52911 4.55923ZM7.52911 1.14399C8.07554 1.14399 8.53744 1.8178 8.53744 2.61519C8.53744 3.41257 8.07586 4.08638 7.52911 4.08638C6.98268 4.08638 6.5211 3.41257 6.5211 2.61519C6.5211 1.8178 6.98268 1.14399 7.52911 1.14399Z" fill="black"/>
<path d="M9.98748 3.56091C9.32606 3.56091 8.80813 4.22495 8.80813 5.07246C8.80813 5.91965 9.32622 6.58369 9.98748 6.58369C10.6487 6.58369 11.1667 5.91965 11.1667 5.07246C11.1667 4.22495 10.6489 3.56091 9.98748 3.56091ZM9.98748 6.11084C9.61304 6.11084 9.29674 5.63515 9.29674 5.07246C9.29674 4.50945 9.61304 4.03376 9.98748 4.03376C10.3619 4.03376 10.678 4.50945 10.678 5.07246C10.678 5.63515 10.3618 6.11084 9.98748 6.11084Z" fill="black"/>
<path d="M3.19202 5.07246C3.19202 4.22495 2.67393 3.56091 2.01268 3.56091C1.35142 3.56091 0.833328 4.22495 0.833328 5.07246C0.833328 5.91965 1.35142 6.58369 2.01268 6.58369C2.67393 6.58369 3.19202 5.91965 3.19202 5.07246ZM2.01268 6.11084C1.63824 6.11084 1.32194 5.63515 1.32194 5.07246C1.32194 4.50945 1.63824 4.03376 2.01268 4.03376C2.38712 4.03376 2.70341 4.50945 2.70341 5.07246C2.70341 5.63515 2.38712 6.11084 2.01268 6.11084Z" fill="black"/>
</g>
<defs>
<clipPath id="clip0_9_20">
<rect width="10.3333" height="10" fill="white" transform="translate(0.833328)"/>
</clipPath>
</defs>
</svg>
